<?xml version="1.0" encoding="UTF-8"?><!DOCTYPE svg PUBLIC "-//W3C//DTD SVG 1.1//EN" "http://www.w3.org/Graphics/SVG/1.1/DTD/svg11.dtd"><svg xmlns="http://www.w3.org/2000/svg" xmlns:xlink="http://www.w3.org/1999/xlink"><symbol id="a"><path d="M151.461 0c14.122 0 25.243 7.83 35.628 15.302 26.149 18.812 52.298 37.623 78.446 56.438 8.407 6.05 14.978 11.481 19.892 21.073 4.916 9.594 5.49 18.099 5.49 28.454v173.326c0 8.835 1.158 15.143 3.471 18.932 2.316 3.785 6.836 5.678 13.568 5.678h7.574c2.943 0 6.309-.42 10.097-1.26v49.853c-2.526.842-5.786 1.788-9.782 2.84a209.088 209.088 0 01-12.305 2.839 129.284 129.284 0 01-12.623 1.892c-4.206.42-7.781.633-10.727.633-14.725 0-26.925-2.946-36.602-8.834-9.675-5.892-15.986-16.199-18.932-30.922-14.303 13.88-31.866 23.978-52.693 30.29-20.824 6.31-40.914 9.466-60.265 9.466-14.726 0-28.818-1.998-42.281-5.996-13.463-3.996-25.348-9.887-35.655-17.669-10.307-7.784-18.511-17.671-24.61-29.66C3.05 310.684 0 296.695 0 280.71c0-20.194 3.683-36.602 11.045-49.222 7.361-12.623 17.038-22.51 29.028-29.659 11.99-7.154 25.453-12.305 40.389-15.46a468.168 468.168 0 0145.119-7.26c12.745-1.414 34.922-4.79 47.632-6.53 7.606-1.046 14.553-2.443 20.837-4.197 9.047-2.525 16.198-6.416 21.457-11.675 5.002-5.002 7.625-12.38 7.87-22.136.073-2.935-.189-7.808-.946-10.602a27.735 27.735 0 00-10.573-15.268l-44.206-31.805c-4.721-3.395-9.777-6.954-16.2-6.954-6.42.002-11.475 3.561-16.194 6.954a148521.53 148521.53 0 01-39.79 28.625c-3.69 2.657-6.883 5.369-9.042 9.58-2.157 4.213-2.494 8.384-2.494 12.934v12.582H11.99v-19.35c0-10.355.576-18.86 5.49-28.454 4.917-9.592 11.485-15.024 19.894-21.073 26.15-18.815 52.298-37.626 78.447-56.438C126.209 7.828 137.33 0 151.46 0zm67.517 203.722c-10.938 7.152-24.4 11.462-40.389 12.935a536.844 536.844 0 00-47.96 6.627 153.67 153.67 0 00-22.087 5.363c-7.151 2.313-13.462 5.469-18.931 9.467-5.469 3.996-9.782 9.255-12.938 15.776-3.153 6.521-4.73 14.41-4.73 23.665 0 7.994 2.312 14.725 6.94 20.194 4.627 5.469 10.203 9.782 16.724 12.935 6.519 3.156 13.673 5.364 21.455 6.626 7.784 1.263 14.83 1.893 21.141 1.893 7.992 0 16.616-1.05 25.873-3.155 9.255-2.103 17.984-5.679 26.188-10.728 8.204-5.048 15.04-11.464 20.51-19.246 5.468-7.784 8.204-17.356 8.204-28.713z" fill="currentColor" fill-rule="evenodd"/></symbol><symbol id="arrow-circle"><g transform="translate(1.5 1.531)" stroke="currentColor" stroke-width="2" fill="none" fill-rule="evenodd"><path d="M16.347 11.74l3.544 3.216-3.544 3.218m-5.904-3.218h8.813" stroke-linecap="round" stroke-linejoin="round"/><circle cx="15" cy="15" r="15"/></g></symbol><symbol id="arrow-down"><path d="M1 1.375l4.25 4.25 4.248-4.25" stroke="currentColor" stroke-width="2" fill="none" stroke-linecap="round" stroke-linejoin="round"/></symbol><symbol id="arrow"><path d="M10.566 1.067L16 6l-5.434 4.933M1.513 6h13.512" stroke="currentColor" stroke-width="2" fill="none" stroke-linecap="round" stroke-linejoin="round"/></symbol><symbol id="cross"><path d="M.632.843L14.25 14.461m-13.618 0L14.25.843" stroke="currentColor" fill="none"/></symbol><symbol id="external"><path d="M15.657.226v3.248H5.1c-.903 0-1.625.722-1.625 1.625V31.9c0 .903.722 1.625 1.625 1.625h26.8c.903 0 1.625-.722 1.625-1.625V21.343h3.248V31.9a4.853 4.853 0 01-4.873 4.873H5.1A4.853 4.853 0 01.227 31.9V5.1A4.853 4.853 0 015.099.226h10.558zm21.117 0v15.431h-3.248V5.776l-12.77 12.77-2.301-2.302 12.77-12.77h-9.882V.226h15.431z" fill="currentColor"/></symbol><symbol id="facebook"><path d="M22.57.75H3.43A2.933 2.933 0 00.5 3.68v19.14a2.933 2.933 0 002.93 2.93h19.14a2.933 2.933 0 002.93-2.93V3.68A2.933 2.933 0 0022.57.75zm.977 22.07a.978.978 0 01-.977.977h-5.566v-7.96h3.017l.499-3.026h-3.516v-2.1a1.44 1.44 0 011.465-1.465h2.002V6.22h-2.002a4.491 4.491 0 00-4.491 4.5v2.092h-2.931v3.027h2.93v7.959H3.43a.978.978 0 01-.977-.977V3.68c0-.539.438-.977.977-.977h19.14c.539 0 .977.438.977.977v19.14z" fill="currentColor"/></symbol><symbol id="false"><path d="M20.57 20.882h-2.14c-.219 0-.391-.057-.517-.171l-.17-.168-7.233-9.028a2 2 0 01-.352.703L3.389 20.38c-.11.12-.223.235-.34.342a.654.654 0 01-.459.16H.57l8.507-10.23L.898.88h2.139c.22 0 .384.041.493.121.11.08.204.175.282.282l6.863 8.462a1.52 1.52 0 01.153-.342l.223-.361 6.416-7.74c.094-.12.196-.22.305-.3a.695.695 0 01.423-.121h2.045l-8.155 9.648 8.484 10.352z" fill="#EDBF41"/></symbol><symbol id="help"><path d="M14.5.5C22.508.5 29 6.992 29 15c0 2.464-.616 4.84-1.774 6.955-.144.262.637 2.29 2.402 5.443l.342.604c.48.836-.383 1.8-1.266 1.415l-.813-.35c-1.443-.615-2.633-1.084-3.567-1.407l-.483-.162c-.545-.175-.97-.285-1.265-.33l-.087-.012-.07-.007-.354.223A14.436 14.436 0 0114.5 29.5C6.492 29.5 0 23.008 0 15S6.492.5 14.5.5zm0 2C7.596 2.5 2 8.096 2 15s5.596 12.5 12.5 12.5c2.513 0 4.913-.742 6.954-2.111.708-.475 2.108-.206 4.778.832l.615.243c-1.439-2.797-1.909-4.495-1.375-5.47A12.438 12.438 0 0027 15c0-6.904-5.596-12.5-12.5-12.5zm.096 16.87c.214 0 .412.04.595.12.184.08.344.187.48.32.137.133.245.293.325.48.08.187.12.383.12.59a1.471 1.471 0 01-.445 1.07 1.52 1.52 0 01-1.075.43 1.56 1.56 0 01-.6-.115 1.448 1.448 0 01-.48-.315 1.46 1.46 0 01-.315-.475 1.527 1.527 0 01-.115-.595 1.538 1.538 0 01.43-1.07 1.534 1.534 0 011.08-.44zm.43-11.75c.58 0 1.109.08 1.585.24.477.16.885.388 1.225.685.34.297.604.655.79 1.075.187.42.28.89.28 1.41 0 .507-.073.945-.22 1.315-.146.37-.33.692-.55.965-.22.273-.461.51-.725.71l-.745.565c-.233.177-.435.35-.605.52-.17.17-.271.362-.305.575l-.23 1.46h-1.69l-.17-1.63c-.04-.313.005-.588.135-.825s.304-.453.52-.65c.145-.131.3-.26.467-.384l.258-.186c.267-.183.517-.383.75-.6a3.12 3.12 0 00.585-.73c.157-.27.235-.592.235-.965 0-.24-.045-.455-.135-.645a1.459 1.459 0 00-.375-.49 1.681 1.681 0 00-.575-.315 2.311 2.311 0 00-.725-.11c-.38 0-.701.042-.965.125a3.558 3.558 0 00-.67.28 8.066 8.066 0 00-.465.28.64.64 0 01-.34.125c-.205 0-.362-.073-.47-.22l-.7-1.11c.227-.2.475-.39.745-.57a5.348 5.348 0 011.895-.785 5.814 5.814 0 011.19-.115z" fill="currentColor"/></symbol><symbol id="home"><g fill="none" fill-rule="evenodd"><path d="M11.699 16.397L32.152 4.09a3 3 0 013.201.068L53.85 16.382a3 3 0 011.346 2.503V49.97a3 3 0 01-3 3h-38.95a3 3 0 01-3-3V18.968a3 3 0 011.454-2.571z" fill="#FFF"/><path stroke="#FFF" stroke-width="6" stroke-linecap="round" stroke-linejoin="round" d="M3.167 24.617L32.786 3 61.76 24.617"/><path d="M23.572 22.489a.636.636 0 00-.367.189 13.944 13.944 0 000 19.866.636.636 0 10.894-.905 12.646 12.646 0 010-18.057.636.636 0 00-.527-1.093zm18.147 0a.636.636 0 00-.378 1.093 12.646 12.646 0 010 18.057.636.636 0 10.895.905 13.944 13.944 0 000-19.866.636.636 0 00-.517-.19zm-13.652 3.659a.636.636 0 00-.368.199c-1.782 1.839-2.671 4.125-2.625 6.244v.04c-.046 2.119.843 4.405 2.625 6.244a.636.636 0 10.905-.885c-1.571-1.621-2.305-3.61-2.257-5.36v-.04c-.048-1.748.686-3.737 2.257-5.358a.636.636 0 00-.537-1.084zm9.157 0a.636.636 0 00-.387 1.084c1.57 1.62 2.304 3.61 2.257 5.359v.04c.047 1.748-.686 3.738-2.257 5.359a.636.636 0 10.904.885c1.783-1.84 2.672-4.125 2.625-6.244v-.04c.047-2.12-.843-4.405-2.625-6.244a.636.636 0 00-.517-.2zm-4.504 3.738c-.71 0-1.42.264-1.959.796a2.72 2.72 0 000 3.868 2.805 2.805 0 003.918 0 2.72 2.72 0 000-3.868 2.777 2.777 0 00-1.959-.796z" fill="#B9D9EB" fill-rule="nonzero"/></g></symbol><symbol id="includes"><g transform="translate(1 1)" stroke="currentColor" fill="none" fill-rule="evenodd"><circle fill="#FFF" cx="13.75" cy="13.75" r="13.75"/><path stroke-width="1.4" stroke-linecap="round" stroke-linejoin="round" d="M8.127 14.842l3.883 3.438 7.863-8.56"/></g></symbol><symbol id="instagram"><path d="M25.425 8.096a9.174 9.174 0 00-.581-3.034 6.128 6.128 0 00-1.442-2.214 6.128 6.128 0 00-2.214-1.442 9.174 9.174 0 00-3.034-.58C16.82.763 16.394.75 13 .75c-3.395 0-3.82.014-5.154.075a9.174 9.174 0 00-3.034.581 6.128 6.128 0 00-2.214 1.442 6.128 6.128 0 00-1.442 2.214 9.174 9.174 0 00-.58 3.034C.513 9.43.5 9.856.5 13.25c0 3.395.014 3.82.075 5.154a9.174 9.174 0 00.581 3.034c.314.834.806 1.59 1.442 2.214a6.127 6.127 0 002.214 1.442c.971.364 1.997.56 3.034.58 1.334.062 1.76.076 5.154.076 3.395 0 3.82-.014 5.154-.075a9.174 9.174 0 003.034-.581 6.392 6.392 0 003.656-3.656c.364-.971.56-1.997.58-3.034.062-1.334.076-1.76.076-5.154 0-3.395-.014-3.82-.075-5.154zm-2.25 10.205a6.914 6.914 0 01-.43 2.321 4.14 4.14 0 01-2.373 2.372 6.915 6.915 0 01-2.32.43c-1.319.061-1.714.074-5.052.074-3.338 0-3.733-.013-5.051-.073a6.915 6.915 0 01-2.321-.43 3.872 3.872 0 01-1.437-.936 3.872 3.872 0 01-.935-1.437 6.914 6.914 0 01-.43-2.32c-.061-1.319-.074-1.714-.074-5.052 0-3.338.013-3.733.073-5.051.01-.793.155-1.578.43-2.321.2-.543.52-1.034.936-1.437a3.872 3.872 0 011.437-.935 6.915 6.915 0 012.32-.43c1.319-.061 1.714-.074 5.052-.074 3.338 0 3.733.013 5.051.073.793.01 1.578.155 2.321.43.543.2 1.034.52 1.437.936.416.403.735.894.935 1.437.276.743.422 1.528.43 2.32.061 1.319.074 1.714.074 5.052 0 3.338-.013 3.733-.073 5.051zM13 6.831a6.419 6.419 0 100 12.838A6.419 6.419 0 0013 6.83zm0 10.586a4.167 4.167 0 110-8.334 4.167 4.167 0 010 8.334zm8.173-10.84a1.5 1.5 0 11-3 0 1.5 1.5 0 013 0z" fill="currentColor"/></symbol><symbol id="linkedin"><g fill="none" fill-rule="evenodd"><path d="M22.177.83H3.037a2.933 2.933 0 00-2.93 2.93V22.9a2.933 2.933 0 002.93 2.93h19.14a2.933 2.933 0 002.93-2.93V3.76a2.933 2.933 0 00-2.93-2.93zm.977 22.07a.978.978 0 01-.977.977h-5.566v-7.96h3.017l.499-3.027H16.61v-2.1a1.44 1.44 0 011.465-1.464h2.002V6.299h-2.002a4.491 4.491 0 00-4.491 4.5v2.091h-2.931v3.028h2.93v7.959H3.038a.978.978 0 01-.977-.977V3.76c0-.539.438-.977.977-.977h19.14c.539 0 .977.438.977.977V22.9z" fill="currentColor" fill-rule="nonzero"/><path fill="#FFF" d="M3.844 4.212h18v19.664h-18z"/><path d="M9.455 20.234v-8.208H6.82v8.208h2.634zm-1.219-9.45c.878 0 1.425-.628 1.425-1.415-.014-.801-.547-1.415-1.41-1.415-.864 0-1.425.614-1.425 1.415 0 .787.547 1.415 1.391 1.415h.02zm7.829 1.056c-1.396 0-1.996.786-2.38 1.333V12.03h-2.638v8.203h2.639v-4.672c0-.24.019-.48.09-.648.193-.48.624-.974 1.353-.974.955 0 1.339.734 1.339 1.809v4.485h2.638v-4.792c0-2.461-1.305-3.603-3.041-3.603z" fill="currentColor" fill-rule="nonzero"/></g></symbol><symbol id="logo"><path d="M57.94 0v39.284h-7.408v-3.63h-.11c-.915 1.54-2.113 2.65-3.594 3.328-1.481.678-3.155 1.018-5.02 1.018-2.122 0-3.988-.413-5.597-1.238-1.61-.826-2.936-1.944-3.978-3.357-1.043-1.411-1.83-3.034-2.36-4.869a20.474 20.474 0 01-.795-5.722c0-1.907.265-3.75.796-5.529.53-1.78 1.316-3.347 2.359-4.705 1.042-1.356 2.35-2.448 3.923-3.273 1.572-.826 3.402-1.239 5.487-1.239 1.682 0 3.283.359 4.801 1.073 1.517.716 2.716 1.77 3.594 3.164h.11V0h7.791zM14.211 10.068c1.426 0 2.87.102 4.334.303 1.463.203 2.799.597 4.006 1.183a7.907 7.907 0 012.963 2.448c.768 1.046 1.152 2.43 1.152 4.155v14.8c0 1.285.073 2.512.22 3.686.145 1.174.401 2.055.768 2.641h-7.902a11.14 11.14 0 01-.357-1.348 11.625 11.625 0 01-.192-1.402 10.158 10.158 0 01-4.389 2.696c-1.683.513-3.402.77-5.158.77-1.353 0-2.616-.166-3.786-.495-1.17-.33-2.194-.844-3.072-1.542a7.152 7.152 0 01-2.058-2.64C.247 34.259 0 32.994 0 31.526c0-1.613.283-2.943.85-3.988.567-1.046 1.299-1.88 2.196-2.504.895-.623 1.92-1.09 3.072-1.403a32.968 32.968 0 013.484-.743 59.35 59.35 0 013.457-.44c1.134-.11 2.14-.275 3.018-.495.878-.22 1.572-.54 2.085-.963.512-.42.75-1.036.714-1.843 0-.843-.138-1.513-.412-2.009a3.032 3.032 0 00-1.097-1.155 4.306 4.306 0 00-1.592-.55 13.063 13.063 0 00-1.947-.138c-1.537 0-2.744.33-3.622.99-.878.66-1.39 1.761-1.536 3.302H.878c.11-1.833.567-3.356 1.372-4.567a9.335 9.335 0 013.072-2.915c1.244-.733 2.643-1.257 4.198-1.568a23.803 23.803 0 014.692-.469zm60.953 0c2.23 0 4.252.359 6.063 1.073 1.81.716 3.356 1.725 4.637 3.027 1.28 1.302 2.268 2.88 2.962 4.73.695 1.854 1.043 3.917 1.043 6.19 0 2.276-.348 4.33-1.043 6.164-.694 1.834-1.683 3.402-2.962 4.704-1.281 1.302-2.826 2.302-4.637 2.998-1.81.697-3.832 1.046-6.063 1.046-2.232 0-4.244-.35-6.036-1.046-1.792-.696-3.329-1.696-4.609-2.998-1.28-1.302-2.268-2.87-2.963-4.704-.695-1.834-1.042-3.888-1.042-6.163 0-2.274.347-4.337 1.042-6.19.695-1.851 1.682-3.429 2.963-4.731 1.28-1.302 2.817-2.311 4.61-3.027 1.791-.714 3.803-1.073 6.035-1.073zm50.205 0c1.5 0 2.89.185 4.17.551 1.28.367 2.378.954 3.293 1.76.914.807 1.627 1.862 2.14 3.165.511 1.301.768 2.87.768 4.704v12.709c0 1.285.073 2.512.22 3.686.145 1.175.401 2.055.767 2.641h-7.791c-.366-.586-.622-1.466-.768-2.64a29.702 29.702 0 01-.22-3.687v-9.794c0-.953-.037-1.852-.11-2.695-.073-.844-.274-1.577-.603-2.201a3.667 3.667 0 00-1.454-1.486c-.64-.366-1.509-.55-2.607-.55-1.097 0-1.984.212-2.66.632a4.59 4.59 0 00-1.591 1.65 6.63 6.63 0 00-.769 2.312 17.643 17.643 0 00-.192 2.614v15.845h-7.791V23.328c0-.842-.02-1.678-.055-2.503a7.06 7.06 0 00-.466-2.284 3.524 3.524 0 00-1.372-1.678c-.64-.42-1.583-.632-2.826-.632-.367 0-.85.083-1.455.247-.603.165-1.188.478-1.755.936-.568.459-1.052 1.12-1.454 1.98-.403.863-.604 1.99-.604 3.384v16.506h-7.791V10.84h7.352v3.851h.11c1.023-1.466 2.258-2.604 3.704-3.411 1.445-.806 3.1-1.21 4.966-1.21 1.791 0 3.429.349 4.91 1.045 1.482.697 2.607 1.926 3.375 3.686.84-1.247 1.984-2.347 3.43-3.3 1.444-.954 3.154-1.432 5.13-1.432zm16.607 21.793a3.57 3.57 0 012.618 1.081c.722.721 1.083 1.594 1.083 2.618a3.604 3.604 0 01-1.083 2.633 3.554 3.554 0 01-2.618 1.091 3.554 3.554 0 01-2.62-1.091 3.603 3.603 0 01-1.082-2.633c0-1.024.361-1.897 1.083-2.618a3.572 3.572 0 012.619-1.081zm0 .505c-.877 0-1.623.314-2.241.94a3.101 3.101 0 00-.922 2.26c0 .889.306 1.646.916 2.273.618.627 1.367.94 2.247.94.879 0 1.628-.313 2.245-.94.611-.627.917-1.384.917-2.274 0-.882-.308-1.636-.922-2.26a3.021 3.021 0 00-2.24-.939zm.004 1.001c.36 0 .683.072.972.217.5.26.771.69.815 1.294h-.61a1.105 1.105 0 00-.317-.657c-.18-.185-.444-.278-.789-.278-.486 0-.838.22-1.056.657a1.98 1.98 0 00-.211.904c0 .462.113.85.339 1.165.227.315.554.473.983.473.275 0 .505-.073.69-.22.184-.147.313-.36.386-.64h.61c-.077.455-.273.808-.588 1.06a1.77 1.77 0 01-1.133.376 1.923 1.923 0 01-1.42-.597c-.392-.397-.588-.926-.588-1.586 0-.617.177-1.132.53-1.547.355-.414.817-.62 1.387-.62zM18.876 25.365c-.33.293-.741.522-1.235.687a12.48 12.48 0 01-1.591.412 24.78 24.78 0 01-1.784.276c-.622.073-1.244.165-1.865.275a14.19 14.19 0 00-1.729.44 5.118 5.118 0 00-1.481.743 3.52 3.52 0 00-1.015 1.183c-.256.477-.384 1.082-.384 1.815 0 .697.128 1.285.384 1.76a2.94 2.94 0 001.042 1.129c.44.275.951.467 1.537.578.584.11 1.188.165 1.81.165 1.537 0 2.725-.257 3.567-.77.84-.514 1.463-1.128 1.866-1.844a5.915 5.915 0 00.74-2.173c.09-.733.138-1.32.138-1.76v-2.916zm24.852-9.41c-1.28 0-2.36.257-3.237.772a6.075 6.075 0 00-2.113 2.035c-.53.844-.915 1.807-1.152 2.888a15.676 15.676 0 00-.357 3.384c0 1.1.128 2.201.384 3.3.256 1.102.667 2.084 1.235 2.944a6.829 6.829 0 002.14 2.091c.859.533 1.893.798 3.1.798 1.28 0 2.35-.256 3.21-.77a5.85 5.85 0 002.058-2.063c.511-.861.877-1.843 1.097-2.943.22-1.101.33-2.238.33-3.411 0-1.175-.11-2.302-.33-3.385-.22-1.082-.595-2.035-1.125-2.86a6.356 6.356 0 00-2.058-2.008c-.842-.515-1.902-.772-3.182-.772zm31.437 0c-1.317 0-2.414.267-3.292.798a6.347 6.347 0 00-2.113 2.064c-.53.844-.905 1.816-1.124 2.916a17.08 17.08 0 000 6.686c.219 1.081.593 2.054 1.124 2.915a5.993 5.993 0 002.113 2.063c.878.514 1.975.77 3.292.77 1.317 0 2.423-.256 3.32-.77a5.93 5.93 0 002.14-2.063 8.89 8.89 0 001.124-2.916 17.105 17.105 0 000-6.685c-.22-1.1-.595-2.072-1.124-2.916a6.274 6.274 0 00-2.14-2.064c-.897-.53-2.003-.798-3.32-.798z" fill="currentColor" fill-rule="evenodd"/></symbol><symbol id="marker"><path d="M16.286 5.224c-.8.947-1.598 1.895-2.315 2.748zm.33.093c.53 1.13.831 2.384.831 3.717 0 5.287-3.38 7.345-6.288 11.896-1.775 2.738-1.284 4.38-2.417 4.38-1.132 0-.642-1.623-2.416-4.361a34.585 34.585 0 00-1.492-2.134l6.576-7.803a3.336 3.336 0 00-2.686-5.32 3.387 3.387 0 00-2.568 1.19 3.25 3.25 0 00-.775 2.133 3.336 3.336 0 003.343 3.342c1.02 0 1.926-.453 2.549-1.19l-6.44 7.648C3.286 16.795 1.776 15.171.87 13.17l-.123-.277C.274 11.774 0 10.532 0 9.015a8.71 8.71 0 012.04-5.589l.188-.217a8.695 8.695 0 019.14-2.483l.298.1a8.698 8.698 0 014.8 4.186z" fill="currentColor" fill-rule="evenodd"/></symbol><symbol id="menu"><path d="M.182 7.842H26.69M.18 14.456h15.86M11.96 1.227h15.858" stroke="currentColor" fill="none"/></symbol><symbol id="pinterest"><g fill="none" fill-rule="evenodd"><path d="M22.146.83H3.006a2.933 2.933 0 00-2.93 2.93V22.9a2.933 2.933 0 002.93 2.93h19.14a2.933 2.933 0 002.93-2.93V3.76a2.933 2.933 0 00-2.93-2.93zm.977 22.07a.978.978 0 01-.977.977H16.58v-7.96h3.017l.498-3.027H16.58v-2.1a1.44 1.44 0 011.464-1.464h2.002V6.299h-2.002a4.491 4.491 0 00-4.49 4.5v2.091h-2.931v3.028h2.93v7.959H3.005a.978.978 0 01-.976-.977V3.76c0-.539.438-.977.976-.977h19.141c.538 0 .977.438.977.977V22.9z" fill="currentColor" fill-rule="nonzero"/><path fill="#FFF" d="M3.369 4.212h18v19.664h-18z"/><path d="M12.49 6.02c-4.383 0-6.66 2.82-6.609 5.893.025 1.428.849 3.206 2.126 3.77.195.085.297.048.337-.13.032-.134.192-.795.262-1.102a.287.287 0 00-.075-.28 3.742 3.742 0 01-.793-2.22c-.035-2.146 1.636-4.226 4.515-4.226 2.495 0 4.272 1.629 4.314 3.959.042 2.632-1.31 4.458-3.116 4.458-.998 0-1.746-.788-1.537-1.761.267-1.155.801-2.405.786-3.243-.012-.749-.444-1.373-1.31-1.373-1.02 0-1.821 1.013-1.796 2.366.003.5.115.992.33 1.444 0 0-.936 4.082-1.106 4.84-.292 1.287.1 3.376.135 3.56a.107.107 0 00.194.05c.098-.127 1.28-1.87 1.602-3.13.115-.457.591-2.316.591-2.316.345.606 1.32 1.118 2.348 1.118 3.064 0 5.227-2.7 5.167-6.055-.058-3.216-2.84-5.624-6.362-5.624" fill="currentColor" fill-rule="nonzero"/></g></symbol><symbol id="quote"><path d="M2.876 25C1.638 22.962.799 20.834.361 18.615c-.439-2.218-.478-4.398-.116-6.54.36-2.14 1.115-4.198 2.263-6.171C3.656 3.93 5.198 2.157 7.132.583l2.98 1.819c.516.335.748.748.697 1.238-.035.327-.12.608-.258.843l-.245.318c-.542.645-1.058 1.496-1.548 2.554-.49 1.057-.832 2.244-1.026 3.56-.193 1.315-.174 2.721.058 4.218.232 1.496.813 2.992 1.742 4.488.464.748.593 1.4.387 1.954-.207.555-.632.948-1.277 1.18L2.876 25zm12.847 0c-1.238-2.038-2.077-4.166-2.515-6.385-.439-2.218-.478-4.398-.116-6.54.36-2.14 1.115-4.198 2.263-6.171 1.148-1.974 2.69-3.747 4.624-5.321l2.98 1.819c.516.335.748.748.697 1.238-.035.327-.12.608-.258.843l-.245.318c-.542.645-1.058 1.496-1.548 2.554-.49 1.057-.832 2.244-1.026 3.56-.193 1.315-.174 2.721.058 4.218.232 1.496.813 2.992 1.742 4.488.464.748.593 1.4.387 1.954-.207.555-.632.948-1.277 1.18L15.723 25z" fill="currentColor"/></symbol><symbol id="team"><g transform="translate(.171 1)" fill="#FFF" fill-rule="evenodd"><circle cx="14.441" cy="13.74" r="8.629"/><path d="M13 24.483h2.881c7.18 0 13 5.82 13 13v4.241H0v-4.241c0-7.18 5.82-13 13-13z"/><circle cx="54.903" cy="13.74" r="8.629"/><path d="M53.463 24.483h2.881c7.18 0 13 5.82 13 13v4.241H40.463v-4.241c0-7.18 5.82-13 13-13z"/><circle stroke="#F6BE00" stroke-width="2" cx="34.5" cy="11.713" r="11.713"/><path d="M30.037 24.704h8.926c7.18 0 13 5.82 13 13v7.85h0-34.926v-7.85c0-7.18 5.82-13 13-13z" stroke="#F6BE00" stroke-width="2"/></g></symbol><symbol id="true"><path d="M2.138 8.366l4.537 4.016 9.187-10" stroke="#93C0D9" stroke-width="3" fill="none" stroke-linecap="round" stroke-linejoin="round"/></symbol><symbol id="whatsapp"><path d="M18.38 15.687c-.302-.164-1.786-.96-2.065-1.072-.278-.112-.481-.171-.698.127-.217.298-.833.965-1.02 1.162-.187.198-.367.216-.67.051-.301-.164-1.281-.524-2.417-1.609-.885-.844-1.464-1.868-1.633-2.18-.168-.313 0-.472.159-.619.144-.132.321-.346.482-.518.16-.173.217-.298.327-.499.11-.2.066-.38-.006-.536-.071-.155-.63-1.683-.863-2.304-.233-.622-.493-.53-.673-.536-.18-.006-.384-.04-.59-.047a1.135 1.135 0 00-.834.351c-.294.296-1.117 1.005-1.173 2.51-.057 1.504.99 2.998 1.137 3.208.146.21 2 3.47 5.083 4.81 3.083 1.341 3.099.933 3.664.903.566-.03 1.849-.673 2.133-1.376.283-.704.306-1.316.234-1.447-.073-.13-.274-.215-.577-.379zm-5.533 7.52a9.756 9.756 0 01-5.478-1.68l-3.827 1.25 1.244-3.776a10.26 10.26 0 01-1.896-5.962c0-5.608 4.467-10.17 9.957-10.17 5.491 0 9.958 4.562 9.958 10.17 0 5.607-4.467 10.169-9.958 10.169zM12.643.75C6.095.75.786 6.202.786 12.928c0 2.3.622 4.453 1.702 6.288L.348 25.75l6.564-2.158a11.567 11.567 0 005.73 1.514c6.55 0 11.858-5.452 11.858-12.178C24.5 6.202 19.192.75 12.643.75z" fill="currentColor"/></symbol></svg>