<svg width="65" height="54" xmlns="http://www.w3.org/2000/svg"><g fill="none" fill-rule="evenodd"><path d="M56.25 0H8.5C3.75 0 0 3.75 0 8.5v22.75A8.749 8.749 0 008.75 40h14.167c1 0 1.916.583 2.333 1.5 1.75 3.75 3.583 7.75 4.917 10.5.916 1.833 3.5 1.917 4.416.083 1.334-2.833 3.167-6.833 4.917-10.666a2.564 2.564 0 012.333-1.5h14.5C61.083 40 65 36.083 65 31.25V8.75A8.749 8.749 0 0056.25 0z" fill="#E96541"/><path d="M35.583 25.833c.75-1.166 0-3.416-.333-4.666-.083 1.166-.667 2.75-1.417 3.666-.833 1-3.333 1.667-3.833 0-.083-.083.25.25 0 0 0-.083-.083-.083-.083-.166H30c-.083-.084-.083-.084-.083-.167 0 0 0 .083 0 0l.083.083c0-.083.667.084.833.25 0 0-.25-.166-.083-.083-.083-.083-.25-.083-.333-.167.833-.083 1.083 1.084 2.083.834.75-.25 1.167-.834 1.5-1.5.5-1.167.333-2.417.75-3.5.583-1.5 2.167-2.084 3.583-2.25-.666-3.75-3.833-6.5-7.916-6.5-4.584 0-8 3.583-8 8 0 4.416 3.416 8 8 8 2 0 3.75-.667 5.166-1.834 0 .084 0 0 0 0m-7.5-6.166c0-1.5.75-2.75 2.334-2.75 1.583 0 2.333 1.25 2.333 2.75s-.75 2.75-2.333 2.75c-1.584 0-2.334-1.25-2.334-2.75m19.5-8.084c-4.083 0-7.25 2.834-7.916 6.584.666.083 1.25.166 1.916.166.417 0 2.334 0 2.417-.666-.25.166.167-.334-.25 0 .167-.25.333-.334.583-.584-.416.167.25-.333.25-.333-.25.167.167-.167-.166-.083.333-.25.083 0 .333-.25-.583.083.5-.334.667-.334-.167-.083-.417 0-.584.084.084-.084.334-.167 0-.084.25-.166.334-.083.667-.083a2.593 2.593 0 00-.5-.333c.167.083.333.083.583.083-.166 0-.25-.083-.416-.25.083.083.166.083.25.083-.334-.083.083-.083.25-.166h-.25c.25-.167.5-.417.75-.667-.334.167.083-.25.333-.333-.083 0-.167 0-.25.083.25-.333.5-.333.833-.333-.083 0-.166-.084-.25-.084.167 0 0 0 .084-.083-.084 0-.167 0-.25.083.416-.5.916-.166 1.25.084-.084-.084-.25-.334-.417-.334.083 0 .333.084.167-.083h.25c-.084 0-.167-.083-.25-.083.25 0 .416 0 .666.083-.583-.417.834.167.5 0 .5.167.75.333 1 .75-.083-.167.167-.083.167.167 0-.25-.167-.5.083-.167-.333-.75.334.333.334.75V15l.083.083c0-.166-.083-.416-.167-.583.417.167.5.667.167.917.25-.167.333-.417.417-.667 0 .25-.167.667-.417.833.417.334.417.667.667 1 .25.334.666.584.833.917 0 .167-.083.167-.167.333-.083.167-.333.584-.333.5.083.167.083.667 0 1 0 0-.083.084-.167-.083 0 .083 0 .167-.083.167v.083c-.083-.083-.083-.25-.167-.333 0 .083-.083.416-.166-.084l-.084.084s0-.084-.083-.084c.25.5-.167 0-.167-.166 0 0-.25.083-.416-.084 0 .084.083.25.083.334-.167-.25.083.166-.083-.084 0 .167.416.917 0 .334.083.083.25.5.25.583-.084-.167 0 .167 0 .167-.084-.25-.167-.417-.334-.5.167.166.25.75.084.916V20.5c0-.167 0-.333-.084-.417.084.417 0 .584-.083.75-.083-.083-.083-.083-.083-.166 0 .166.083.333.25.416v.084c-.084 0-.084-.084-.167-.084.25.5.083.417 0 .25 0 .084.083.084.083.167v.083c-.083-.083-.166-.166-.25-.166.167.416.25.833.167 1.083 0-.083-.083-.167-.083-.25 0 .167.166.5 0 .583v-.166.166c0-.083 0-.083-.084-.25 0 .167.084.5-.083.667.083-.167.083-.333.083-.5 0 .167 0 .333-.083.417V23c-.083.25 0-.083-.167.083V23v.167s.084.083.084.166c-.167-.083-.334-.25-.5-.416.166.333-.334-.417.083.166-.333-.25-.333-.333-.5-.75.083.167 0 .5 0 .667-.083.25-.167.583-.25.333l-.25.25c.25-.25-.083 0 0-.333-.333.25-.083.583-.083.917-.084-.334 0 .083-.084-.25 0 .083.084.25.084.333-.084-.083-.084-.083-.084 0L48 24.167v-.084c0 .75-.083-.166-.083.084-.167-.25-.25-.5-.25-.834-.084.25.083.834.333 1-.083-.083-.25-.25-.25-.166-.083-.084-.083-.25-.167-.417.084.25 0 .5-.166.667.083-.25 0-.167 0-.417-.167.25-.25.25-.084-.167-.083.167-.166.25-.25.417.084-.333 0-.25 0-.083v-.084c-.083.25-.166.25-.083 0-.083.084-.083.334-.083.5-.334-.416-.25.75-.334 1.084-.083.416-.25 1.166 0 1.666h.834c4.583 0 8.083-3.583 8.083-8 .083-4.166-3.333-7.75-7.917-7.75" fill="#FFF"/><path d="M45.583 24.833c-.666.25-1.25 1.417-.5 2.417.667-.5 1.084-1.833.5-2.417m-4.833-.916s1.583 2.333 3.25 2.916c0 0 .167-3.25-3.25-2.916m-19.417 3.416H9.417v-3.666l5.5-7.25H9.583V12h11.584v3.667l-5.5 7.166h5.666v4.5z" fill="#FFF"/></g></svg>