<svg width="66" height="54" xmlns="http://www.w3.org/2000/svg"><g fill="none" fill-rule="evenodd"><path d="M9 0C4.25 0 .5 3.75.5 8.5v22.75A8.749 8.749 0 009.25 40h14.167c1 0 1.916.583 2.333 1.5 1.75 3.75 3.583 7.75 4.917 10.5.916 1.833 3.5 1.917 4.416.083C36.417 49.25 38.25 45.25 40 41.417a2.564 2.564 0 012.333-1.5h14.5c4.75.083 8.667-3.834 8.667-8.667V8.75A8.749 8.749 0 0056.75 0H9z" fill="#EDBF41" fill-rule="nonzero"/><path d="M32.197 6.065c.999 0 1.786.554 2.52 1.082l5.55 3.993c.594.428 1.059.812 1.406 1.49.348.679.389 1.28.389 2.013v12.26c0 .626.082 1.072.245 1.34.164.268.484.402.96.402h.536c.208 0 .446-.03.714-.09v3.527a14.79 14.79 0 01-1.562.402 9.145 9.145 0 01-1.652.178c-1.042 0-1.905-.208-2.59-.625-.684-.416-1.13-1.145-1.338-2.187-1.012.982-2.255 1.696-3.728 2.143-1.473.446-2.894.67-4.263.67a10.45 10.45 0 01-2.99-.425 7.85 7.85 0 01-2.523-1.25 5.99 5.99 0 01-1.74-2.098c-.432-.848-.648-1.838-.648-2.968 0-1.429.26-2.59.781-3.482a5.784 5.784 0 012.054-2.098 9.27 9.27 0 012.857-1.094 33.117 33.117 0 013.191-.513c.902-.1 2.47-.34 3.37-.462a11.178 11.178 0 001.474-.297c.64-.179 1.145-.454 1.517-.826.354-.354.54-.876.557-1.566.005-.207-.013-.552-.067-.75a1.962 1.962 0 00-.748-1.08l-3.127-2.25c-.334-.24-.691-.492-1.146-.492-.454 0-.811.252-1.145.492-.938.676-1.877 1.35-2.815 2.025-.26.188-.487.38-.64.678-.152.298-.176.593-.176.915v.89h-5.089v-1.369c0-.732.04-1.334.389-2.013.347-.678.812-1.062 1.407-1.49l5.549-3.993c.735-.528 1.521-1.082 2.521-1.082zm4.776 14.41c-.774.507-1.726.812-2.857.916-1.13.104-2.262.26-3.393.468a10.87 10.87 0 00-1.562.38 4.701 4.701 0 00-1.34.67 2.94 2.94 0 00-.914 1.115c-.223.462-.335 1.02-.335 1.674 0 .566.164 1.042.491 1.429.327.387.722.692 1.183.915.461.223.967.38 1.518.469.55.089 1.049.134 1.495.134.565 0 1.176-.075 1.83-.224a6.086 6.086 0 001.853-.758 4.877 4.877 0 001.45-1.362c.387-.55.58-1.228.58-2.031z" fill="#FFF"/></g></svg>