<?xml version="1.0" encoding="UTF-8"?><!DOCTYPE svg PUBLIC "-//W3C//DTD SVG 1.1//EN" "http://www.w3.org/Graphics/SVG/1.1/DTD/svg11.dtd"><svg xmlns="http://www.w3.org/2000/svg" xmlns:xlink="http://www.w3.org/1999/xlink"><defs><clipPath id="a"><path d="M0 0h29.291v31.085H0z" transform="translate(0 .287)" fill="none"/></clipPath></defs><symbol id="arrow"><path d="M.707 12.707l6-6-6-6" fill="none" stroke="currentColor" stroke-miterlimit="10" stroke-width="2"/></symbol><symbol id="clock"><g data-name="Group 76" transform="translate(-135 -52.5)"><circle data-name="Ellipse 1" cx="50.5" cy="50.5" r="50.5" transform="translate(135 52.5)" fill="#020202"/><path data-name="Rectangle 1" fill="#fff" d="M184.868 56.959h.787v4.73h-.787z"/><path data-name="Rectangle 2" fill="#fff" d="M180.082 57.251l.782-.083.497 4.703-.782.083z"/><path data-name="Path 2" d="M176.338 62.67l.771-.165-.984-4.627-.771.165z" fill="#fff"/><path data-name="Path 3" d="M172.199 63.822l.752-.244-1.463-4.5-.749.243z" fill="#fff"/><path data-name="Rectangle 3" fill="#fff" d="M166.274 61.079l.72-.32 1.923 4.321-.72.32z"/><path data-name="Rectangle 4" fill="#fff" d="M162.022 63.291l.682-.393 2.363 4.099-.682.393z"/><path data-name="Rectangle 5" fill="#fff" d="M158.022 65.937l.637-.463 2.782 3.828-.638.463z"/><path data-name="Path 4" d="M157.488 72.507l.586-.528-3.166-3.516-.585.528z" fill="#fff"/><path data-name="Rectangle 6" fill="#fff" d="M150.961 72.405l.527-.585 3.518 3.167-.528.585z"/><path data-name="Path 5" d="M151.806 78.938l.462-.638-3.829-2.78-.46.638z" fill="#fff"/><path data-name="Path 6" d="M149.499 82.561l.392-.682-4.1-2.364-.392.682z" fill="#fff"/><path data-name="Path 7" d="M147.583 86.415l.319-.721-4.324-1.923-.317.72z" fill="#fff"/><path data-name="Path 8" d="M146.082 90.442l.241-.749-4.5-1.461-.241.751z" fill="#fff"/><path data-name="Path 9" d="M145.008 94.605l.162-.771-4.629-.984-.162.773z" fill="#fff"/><path data-name="Path 10" d="M144.376 98.859l.081-.784-4.706-.5-.081.785z" fill="#fff"/><path data-name="Path 11" d="M144.194 103.152v-.787h-4.73v.789z" fill="#fff"/><path data-name="Path 12" d="M144.461 107.443l-.087-.783-4.706.5.086.784z" fill="#fff"/><path data-name="Path 13" d="M145.172 111.683l-.168-.771-4.629.987.168.77z" fill="#fff"/><path data-name="Path 14" d="M146.325 115.824l-.247-.749-4.5 1.465.248.748z" fill="#fff"/><path data-name="Path 15" d="M147.903 119.823l-.324-.717-4.32 1.925.325.719z" fill="#fff"/><path data-name="Path 16" d="M149.892 123.633l-.4-.678-4.1 2.366.4.68z" fill="#fff"/><path data-name="Path 17" d="M152.268 127.215l-.466-.633-3.827 2.782.467.635z" fill="#fff"/><path data-name="Path 18" d="M155.007 130.531l-.528-.581-3.516 3.167.53.581z" fill="#fff"/><path data-name="Path 19" d="M158.07 133.54l-.584-.523-3.167 3.516.589.523z" fill="#fff"/><path data-name="Path 20" d="M161.438 136.214l-.636-.46-2.782 3.83.639.46z" fill="#fff"/><path data-name="Path 21" d="M165.061 138.522l-.681-.39-2.366 4.1.684.39z" fill="#fff"/><path data-name="Path 22" d="M168.915 140.437l-.719-.317-1.925 4.324.722.318z" fill="#fff"/><path data-name="Path 23" d="M172.942 141.943l-.747-.241-1.463 4.5.751.238z" fill="#fff"/><path data-name="Path 24" d="M177.104 143.013l-.768-.162-.984 4.63.77.162z" fill="#fff"/><path data-name="Path 25" d="M181.356 143.645l-.781-.081-.494 4.708.781.078z" fill="#fff"/><path data-name="Path 26" d="M185.651 143.83h-.785v4.733h.785z" fill="#fff"/><path data-name="Rectangle 7" fill="#fff" d="M189.158 143.648l.78-.083.5 4.704-.778.083z"/><path data-name="Rectangle 8" fill="#fff" d="M193.413 143.016l.766-.164.989 4.63-.766.163z"/><path data-name="Path 27" d="M198.322 141.7l-.747.243 1.467 4.5.744-.248z" fill="#fff"/><path data-name="Rectangle 9" fill="#fff" d="M201.602 140.443l.718-.32 1.93 4.321-.718.32z"/><path data-name="Rectangle 10" fill="#fff" d="M205.452 138.528l.68-.393 2.368 4.098-.68.393z"/><path data-name="Path 28" d="M209.718 135.759l-.638.462 2.785 3.829.635-.465z" fill="#fff"/><path data-name="Path 29" d="M213.032 133.022l-.586.526 3.17 3.517.582-.528z" fill="#fff"/><path data-name="Path 30" d="M216.047 129.953l-.529.584 3.521 3.167.524-.587z" fill="#fff"/><path data-name="Path 31" d="M218.717 126.586l-.465.638 3.834 2.78.46-.638z" fill="#fff"/><path data-name="Path 32" d="M221.025 122.959l-.4.682 4.1 2.364.389-.682z" fill="#fff"/><path data-name="Path 33" d="M222.94 119.11l-.323.719 4.329 1.923.316-.721z" fill="#fff"/><path data-name="Path 34" d="M224.446 115.081l-.246.749 4.507 1.461.239-.75z" fill="#fff"/><path data-name="Path 35" d="M225.516 110.918l-.165.771 4.633.982.16-.77z" fill="#fff"/><path data-name="Path 36" d="M226.149 106.667l-.086.782 4.712.492.078-.781z" fill="#fff"/><path data-name="Path 37" d="M226.333 102.372v.789h4.738v-.785z" fill="#fff"/><path data-name="Path 38" d="M226.068 98.081l.08.784 4.711-.5-.086-.78z" fill="#fff"/><path data-name="Path 39" d="M225.354 93.846l.162.771 4.635-.988-.168-.767z" fill="#fff"/><path data-name="Path 40" d="M224.202 89.696l.242.751 4.5-1.468-.244-.746z" fill="#fff"/><path data-name="Path 41" d="M222.623 85.7l.319.721 4.327-1.93-.322-.717z" fill="#fff"/><path data-name="Path 42" d="M220.636 81.887l.391.684 4.1-2.371-.4-.679z" fill="#fff"/><path data-name="Path 43" d="M218.259 78.304l.462.64 3.832-2.788-.464-.634z" fill="#fff"/><path data-name="Path 44" d="M215.524 74.988l.526.588 3.518-3.173-.527-.581z" fill="#fff"/><path data-name="Path 45" d="M212.453 71.978l.585.53 3.167-3.524-.584-.524z" fill="#fff"/><path data-name="Path 46" d="M209.086 69.304l.638.467 2.782-3.837-.635-.46z" fill="#fff"/><path data-name="Path 47" d="M205.459 66.997l.682.4 2.367-4.107-.681-.39z" fill="#fff"/><path data-name="Path 48" d="M201.609 65.081l.722.324 1.924-4.331-.718-.319z" fill="#fff"/><path data-name="Path 49" d="M197.581 63.581l.75.246 1.462-4.508-.747-.241z" fill="#fff"/><path data-name="Path 50" d="M193.418 62.508l.773.165.982-4.637-.769-.16z" fill="#fff"/><path data-name="Path 51" d="M189.165 61.875l.785.084.494-4.713-.784-.079z" fill="#fff"/><path data-name="Rectangle 11" fill="#fff" d="M183.907 56.959h2.758v8.516h-2.758z"/><path data-name="Rectangle 12" fill="#fff" d="M161.187 63.773l2.39-1.379 4.256 7.375-2.39 1.38z"/><path data-name="Rectangle 13" fill="#fff" d="M144.918 81.033l1.38-2.39 7.375 4.26-1.38 2.39z"/><path data-name="Rectangle 14" fill="#fff" d="M139.459 101.357h8.516v2.76h-8.516z"/><path data-name="Rectangle 15" fill="#fff" d="M144.893 124.448l7.374-4.26 1.38 2.39-7.374 4.259z"/><path data-name="Rectangle 16" fill="#fff" d="M161.144 141.723l4.26-7.372 2.388 1.38-4.259 7.372z"/><path data-name="Rectangle 17" fill="#fff" d="M183.858 140.049h2.759v8.515h-2.759z"/><path data-name="Rectangle 18" fill="#fff" d="M202.691 135.753l2.39-1.38 4.257 7.374-2.39 1.38z"/><path data-name="Rectangle 19" fill="#fff" d="M216.851 122.62l1.38-2.39 7.374 4.257-1.38 2.39z"/><path data-name="Rectangle 20" fill="#fff" d="M222.549 101.407h8.514v2.758h-8.514z"/><path data-name="Path 52" d="M218.256 85.335l-1.381-2.393 7.375-4.256 1.376 2.39z" fill="#fff"/><path data-name="Path 53" d="M205.122 71.172l-2.391-1.38 4.259-7.374 2.386 1.382z" fill="#fff"/><path data-name="Rectangle 21" fill="#fff" d="M163.234 91.053l1.852-3.026 22.453 13.74-1.852 3.026z"/><path data-name="Path 54" d="M214.667 83.309l1.336 2.086-29.606 17.733-1.336-2.085z" fill="#fff"/><path data-name="Path 55" d="M184.337 104.211v32.18h1.774v-32.18a2.54 2.54 0 000-4.782v-5.168h-1.774v5.178a2.547 2.547 0 000 4.773z" fill="#fff"/></g></symbol><symbol id="close-large"><g fill="#fff"><path d="M9.9 0l1.65 1.65-9.9 9.9L0 9.9z"/><path data-name="Rectangle Copy 2" d="M11.55 9.899l-1.65 1.65-9.9-9.9L1.65 0z"/></g></symbol><symbol id="close"><g fill="currentColor"><path d="M.001 21.213L21.214 0l1.414 1.414L1.415 22.627z"/><path d="M1.415.001l21.213 21.213-1.414 1.414L.001 1.415z"/></g></symbol><symbol id="favicon"><g data-name="Group 61" fill="#292929"><path data-name="Fill 6" d="M29.719 30l-7.99-14.862L29.739 0h-5.3l-5.422 10.092v-.008l-2.678 4.974L24.245 30z"/><path data-name="Fill 8" d="M.019 30h5.475L13.4 15.058l-2.673-4.973v.008L5.3 0H0l8.008 15.138z"/></g></symbol><symbol id="genius"><g data-name="Group 55"><g data-name="Group 55" fill="#fff"><path data-name="Path 128" d="M343.407.65h-.9V.118h2.456V.65h-.9v2.287h-.652z"/><path data-name="Path 129" d="M348.281 2.936V1.245l-.83 1.393h-.294l-.825-1.357v1.655h-.612V.118h.539l1.055 1.752 1.039-1.752h.536l.008 2.818z"/></g><path data-name="Path 130" d="M126.844 18.526v47.472c0 17.79-13.729 22.914-25.33 22.914-6.769 0-12.375-1.74-14.793-3.48v-6.865c2.32 1.547 7.154 3.384 13.536 3.384 9.861 0 18.465-4.448 18.465-15.857v-6.768h-.483c-2.32 5.317-9.378 10.441-18.659 10.441-12.085 0-24.654-8.894-24.654-26.1S87.494 17.562 99.58 17.562c9.282 0 16.339 5.125 18.659 10.442h.483v-9.475zm-7.834 25.138c0-12.376-9.087-18.659-18.08-18.659-8.894 0-17.886 6.187-17.886 18.659s8.991 18.659 17.886 18.659c8.995 0 18.08-6.28 18.08-18.659z" fill="#fff"/><path data-name="Path 131" d="M182.623 46.662h-41.381c1.257 10.538 9.282 16.145 18.95 16.145a20.178 20.178 0 0014.986-6.09l4.06 4.157c-4.543 5.608-11.795 8.894-19.917 8.894-13.535 0-25.815-9.378-25.815-26.1 0-16.92 12.376-26.105 25.041-26.105 12.764-.004 26.106 9.18 24.076 29.099zm-41.381-6.188h34.227c-.581-10.346-8.412-15.856-16.824-15.856-8.317 0-16.147 5.317-17.403 15.856z" fill="#fff"/><path data-name="Path 132" d="M234.062 39.216v29.586h-8.122V40.376c0-10.151-5.994-15.371-14.019-15.371s-14.309 5.22-14.309 15.371v28.425h-8.122V18.526h8.122v8.217c2.611-4.834 8.121-9.185 16.822-9.185 10.54.001 19.628 6.576 19.628 21.658z" fill="#fff"/><path data-name="Path 133" d="M240.724.156h8.121v7.541h-8.121zm0 18.37h8.121v50.275h-8.121z" fill="#fff"/><path data-name="Path 134" d="M300.081 18.526v50.275h-8.122v-8.218c-2.611 4.834-8.122 9.184-16.823 9.184-10.538 0-19.627-6.575-19.627-21.657V18.526h8.121V46.95c0 10.152 5.995 15.373 14.02 15.373s14.309-5.221 14.309-15.373V18.526z" fill="#fff"/><path data-name="Path 135" d="M304.617 55.415l6.634-1.8c1.326 5.213 5.212 8.53 10.708 8.53 4.643 0 9.288-2.274 9.288-7.676 0-4.076-2.843-6.161-8.53-8.53l-4.454-1.705c-8.15-3.318-11.562-8.151-11.562-13.742 0-7.77 6.729-12.888 15.257-12.888 7.866 0 13.741 4.359 15.447 10.993l-6.349 1.9c-1.516-4.074-4.455-6.349-8.813-6.349-4.264 0-7.676 2.275-7.676 6.444 0 3.127 1.99 5.591 7.107 7.676l3.981 1.611c7.77 3.032 13.456 6.445 13.456 14.6 0 9.76-8.244 14.309-17.153 14.309-9.191-.015-15.825-4.943-17.341-13.373z" fill="#fff"/><path data-name="Path 136" d="M68.829 29.139H46.722l15.48-15.48-7.108-7.251-15.63 15.63V.014L29.316 0v22.159L13.735 6.577 6.55 13.743l15.385 15.385-21.93.01v10.153h22.2L6.427 55.077l7.176 7.182 15.706-15.706-.02 22.273 10.174.014.01-22.161L55.196 62.43l7.2-7.185-15.939-15.952h22.271z" fill="#00bed6"/></g></symbol><symbol id="geniusicon"><path data-name="Path 137" d="M34.003 14.395H23.081l7.647-7.647-3.511-3.582-7.721 7.721V.007L14.483 0v10.947l-7.7-7.7-3.55 3.54 7.6 7.6-10.834.005v5.016h10.965l-7.79 7.8 3.545 3.548 7.759-7.759-.01 11 5.026.007V23.056l7.768 7.781 3.559-3.549-7.874-7.881h11z" fill="#00bed6"/></symbol><symbol id="logo"><path d="M126.212.87h-.532V.554h1.449V.87h-.532v1.362h-.385zm2.913-.316l-.613 1.042-.622-1.042h-.318v1.678h.361v-.986l.487.808h.174l.49-.829v1.007h.361l-.004-1.678zM46.585.59L33.324 30.532h5.316l3.934-9.568h9.806l-1.745-4.146h-6.161l4.244-10.071 4.326 10.507 1.394 3.515 4.07 9.763h4.862L50.765.59zm40.456 29.965h-9.445a7.6 7.6 0 01-7.555-7.621V.59h4.407v22.344a3.166 3.166 0 003.148 3.176h9.445zm36.765-.001l-7.99-14.862 8.01-15.138h-5.3l-5.422 10.092v-.008l-2.678 4.974 7.906 14.942zm-29.701 0h5.475l7.906-14.942-2.673-4.973v.008L99.386.554h-5.3l8.008 15.138z" fill="currentColor"/><path d="M0 0h29.291v31.085H0z" fill="none"/><g clip-path="url(#a)" transform="translate(0 -.287)"><path d="M25.243 20.713a10.948 10.948 0 01-20.8-4.883 10.948 10.948 0 0120.816-4.855l4.033-1.883A15.385 15.385 0 000 15.83a15.386 15.386 0 0029.278 6.767z" fill="currentColor"/></g></symbol><symbol id="pin"><g data-name="Group 73"><path data-name="Path 1" d="M10.459 0A10.471 10.471 0 000 10.459a10.365 10.365 0 002.086 6.27l7.728 10.408c.019.025.049.035.07.057a.779.779 0 001.219-.057c2.225-2.969 6.3-8.515 7.873-10.607l.01-.013A10.459 10.459 0 0010.459 0zm0 16.1a5.643 5.643 0 115.641-5.641 5.657 5.657 0 01-5.641 5.641z" fill="currentColor"/></g></symbol><symbol id="plus"><g data-name="Group 5" fill="none" stroke="#292929" stroke-width="1.5"><path data-name="Line 3" d="M9 0v18"/><path data-name="Line 4" d="M18 9H0"/></g></symbol><symbol id="projectplus"><g data-name="Group 18"><g data-name="Group 18" fill="#fff"><path data-name="Path 1" d="M372.27.647h-.905V.114h2.465v.533h-.906v2.3h-.654z"/><path data-name="Path 2" d="M377.159 2.942v-1.7l-.833 1.4h-.295l-.828-1.362v1.661h-.614V.113h.541l1.059 1.758 1.043-1.758h.538l.008 2.828z"/></g><path data-name="Path 3" d="M368.023 29.474l-29.656-.013V.101l-10.191-.1v29.474h-29.234l-.014 10.186h29.234l.014 29.421h10.191V39.66l29.642.027z" fill="#00d49f"/><path data-name="Path 4" d="M50.814 43.418c0 16.844-12.112 25.549-24.129 25.549-9.179 0-16.087-5.015-18.453-10.22h-.284v27.252H0V18.815h7.948v9.273h.284c2.366-5.2 9.273-10.22 18.453-10.22 12.017.001 24.129 8.707 24.129 25.55zm-7.948 0c0-12.206-8.706-18.263-17.506-18.263s-17.6 6.151-17.6 18.263 8.8 18.262 17.6 18.262 17.506-6.056 17.506-18.262z" fill="#fff"/><path data-name="Path 5" d="M87.848 43.418c0-16.465 12.774-25.549 25.549-25.549s25.549 9.084 25.549 25.549-12.774 25.549-25.549 25.549-25.549-9.084-25.549-25.549zm43.149 0c0-11.639-8.517-18.263-17.6-18.263s-17.6 6.623-17.6 18.263 8.517 18.262 17.6 18.262 17.6-6.623 17.6-18.262z" fill="#fff"/><path data-name="Path 6" d="M132.068 78.328h2.176c7.287 0 12.112-2.25 12.112-12.469V18.793h7.948v47.626c0 14.719-7.475 19.22-19.87 19.22h-2.366z" fill="#fff"/><path data-name="Rectangle 14" fill="#fff" d="M146.356.192h7.949v7.381h-7.949z"/><path data-name="Path 7" d="M215.41 43.776c0-16.262 12.616-25.233 25.233-25.233a23.169 23.169 0 0120.747 11.963l-5.981 3.551a16.861 16.861 0 00-14.673-8.317c-8.785 0-17.476 6.542-17.476 18.037s8.691 18.037 17.476 18.037a16.861 16.861 0 0014.673-8.317l5.981 3.551a23.353 23.353 0 01-20.747 11.962c-12.617 0-25.233-8.972-25.233-25.234z" fill="#fff"/><path data-name="Path 8" d="M208.687 46.348h-40.5c1.23 10.314 9.084 15.8 18.547 15.8a19.747 19.747 0 0014.667-5.962l3.974 4.069c-4.448 5.489-11.544 8.706-19.492 8.706-13.248 0-25.266-9.179-25.266-25.549 0-16.559 12.112-25.549 24.508-25.549 12.491.006 25.551 8.996 23.562 28.485zm-40.5-6.056h33.5c-.568-10.125-8.232-15.519-16.465-15.519-8.14.004-15.805 5.208-17.035 15.523z" fill="#fff"/><path data-name="Path 9" d="M282.59 25.293V56.82c0 3.066 1.525 4.982 5.242 4.982a12.926 12.926 0 004.48-.861v6.42c-1.716 1.341-4.385 1.725-6.672 1.725-6.576 0-11.056-3.259-11.056-10.733v-33.06h-6.675v-6.611h6.673L274.568.103h7.993l.027 18.579h9.818v6.612z" fill="#fff"/><path data-name="Path 10" d="M84.355 18.593v7.584a11.857 11.857 0 00-2.785-.288c-9.312 0-16.128 7.008-16.128 18.144v25.055h-8.063l-.014-50.412h8.077v12.876c1.825-7.2 6.816-13.343 16.032-13.343a8.377 8.377 0 012.881.384z" fill="#fff"/></g></symbol><symbol id="projectplusicon"><path data-name="Path 100" d="M34.012 14.509l-14.6-.006V.05L14.396 0v14.509H.005l-.007 5.014h14.391l.007 14.482h5.016V19.523l14.591.013z" fill="#00d49f"/></symbol><symbol id="quote"><path data-name="&#x201C;" d="M76 122L119.5 0h48l-43 122zm-76 0L43.5 0h48l-43 122z" fill="#292929" opacity=".19"/></symbol><symbol id="winx"><g data-name="Group 53"><path data-name="Path 115" d="M84.026 18.421L65.183 68.413h-7.5L42.012 28.227l-15.67 40.186h-7.5L0 18.421h8.17l14.517 39.9 15.483-39.9h7.691l15.479 39.9 14.517-39.9z" fill="#fff"/><path data-name="Path 116" d="M90.496.155h8.076v7.5h-8.076zm0 18.267h8.076v49.997h-8.076z" fill="#fff"/><path data-name="Path 117" d="M149.363 38.996v29.418h-8.076V40.149c0-10.095-5.961-15.287-13.941-15.287s-14.228 5.192-14.228 15.287v28.265h-8.076V18.422h8.076v8.171c2.6-4.807 8.076-9.133 16.728-9.133 10.479 0 19.517 6.537 19.517 21.536z" fill="#fff"/><g data-name="Group 53" fill="#fff"><path data-name="Path 118" d="M223.27.542h-.9V.013h2.446v.529h-.9v2.282h-.65z"/><path data-name="Path 119" d="M228.122 2.824V1.14l-.826 1.387h-.292l-.822-1.351v1.648h-.609V.017h.537l1.051 1.744 1.035-1.744h.533l.008 2.807z"/></g><g data-name="Group 54" fill="#ba9f6f"><path data-name="Path 120" d="M166.561 68.484h-10.06l18.41-33.826L156.455 0h9.718l18.33 34.659z"/><path data-name="Path 121" d="M208.933 68.484h10.06l-18.41-33.826L219.042.001h-9.718l-18.557 34.258z"/></g></g></symbol><symbol id="winxicon"><path data-name="Union 4" d="M26.708 34.508l-8.958-17L26.9.5h4.792l-9.1 17.21 9.078 16.8zm-25.854 0L9.93 17.71.83.5h4.792l9.038 17.211-8.845 16.8z" fill="#ba9f6f" stroke="rgba(0,0,0,0)" stroke-miterlimit="10"/></symbol></svg>