<?xml version="1.0" encoding="UTF-8" standalone="no"?>
<svg width="65px" height="54px" viewBox="0 0 65 54" version="1.1" xmlns="http://www.w3.org/2000/svg" xmlns:xlink="http://www.w3.org/1999/xlink" xmlns:sketch="http://www.bohemiancoding.com/sketch/ns">
    <!-- Generator: Sketch 3.3.2 (12043) - http://www.bohemiancoding.com/sketch -->
    <title>cd-icon-location</title>
    <desc>Created with Sketch.</desc>
    <defs></defs>
    <g id="Page-1" stroke="none" stroke-width="1" fill="none" fill-rule="evenodd" sketch:type="MSPage">
        <g id="cd-icon-location" sketch:type="MSLayerGroup">
            <path d="M56.25,0 L8.5,0 C3.75,0 0,3.75 0,8.5 L0,31.25 C0,36.0833333 3.91666667,40 8.75,40 L22.9166667,40 C23.9166667,40 24.8333333,40.5833333 25.25,41.5 C27,45.25 28.8333333,49.25 30.1666667,52 C31.0833333,53.8333333 33.6666667,53.9166667 34.5833333,52.0833333 C35.9166667,49.25 37.75,45.25 39.5,41.4166667 C39.9166667,40.5 40.8333333,39.9166667 41.8333333,39.9166667 L56.3333333,39.9166667 C61.0833333,40 65,36.0833333 65,31.25 L65,8.75 C65,3.91666667 61.0833333,0 56.25,0 L56.25,0 Z" id="Shape" fill="#E96541" sketch:type="MSShapeGroup"></path>
            <path d="M35.5833333,25.8333333 C36.3333333,24.6666667 35.5833333,22.4166667 35.25,21.1666667 C35.1666667,22.3333333 34.5833333,23.9166667 33.8333333,24.8333333 C33,25.8333333 30.5,26.5 30,24.8333333 C29.9166667,24.75 30.25,25.0833333 30,24.8333333 C30,24.75 29.9166667,24.75 29.9166667,24.6666667 L30,24.6666667 C29.9166667,24.5833333 29.9166667,24.5833333 29.9166667,24.5 C29.9166667,24.5 29.9166667,24.5833333 29.9166667,24.5 C29.9166667,24.5 29.9166667,24.5 30,24.5833333 C30,24.5 30.6666667,24.6666667 30.8333333,24.8333333 C30.8333333,24.8333333 30.5833333,24.6666667 30.75,24.75 C30.6666667,24.6666667 30.5,24.6666667 30.4166667,24.5833333 C31.25,24.5 31.5,25.6666667 32.5,25.4166667 C33.25,25.1666667 33.6666667,24.5833333 34,23.9166667 C34.5,22.75 34.3333333,21.5 34.75,20.4166667 C35.3333333,18.9166667 36.9166667,18.3333333 38.3333333,18.1666667 C37.6666667,14.4166667 34.5,11.6666667 30.4166667,11.6666667 C25.8333333,11.6666667 22.4166667,15.25 22.4166667,19.6666667 C22.4166667,24.0833333 25.8333333,27.6666667 30.4166667,27.6666667 C32.4166667,27.6666667 34.1666667,27 35.5833333,25.8333333 C35.5833333,25.9166667 35.5833333,25.8333333 35.5833333,25.8333333 M28.0833333,19.6666667 C28.0833333,18.1666667 28.8333333,16.9166667 30.4166667,16.9166667 C32,16.9166667 32.75,18.1666667 32.75,19.6666667 C32.75,21.1666667 32,22.4166667 30.4166667,22.4166667 C28.8333333,22.4166667 28.0833333,21.1666667 28.0833333,19.6666667" id="Shape" fill="#FFFFFF" sketch:type="MSShapeGroup"></path>
            <path d="M47.5833333,11.5833333 C43.5,11.5833333 40.3333333,14.4166667 39.6666667,18.1666667 C40.3333333,18.25 40.9166667,18.3333333 41.5833333,18.3333333 C42,18.3333333 43.9166667,18.3333333 44,17.6666667 C43.75,17.8333333 44.1666667,17.3333333 43.75,17.6666667 C43.9166667,17.4166667 44.0833333,17.3333333 44.3333333,17.0833333 C43.9166667,17.25 44.5833333,16.75 44.5833333,16.75 C44.3333333,16.9166667 44.75,16.5833333 44.4166667,16.6666667 C44.75,16.4166667 44.5,16.6666667 44.75,16.4166667 C44.1666667,16.5 45.25,16.0833333 45.4166667,16.0833333 C45.25,16 45,16.0833333 44.8333333,16.1666667 C44.9166667,16.0833333 45.1666667,16 44.8333333,16.0833333 C45.0833333,15.9166667 45.1666667,16 45.5,16 C45.4166667,15.9166667 45.1666667,15.75 45,15.6666667 C45.1666667,15.75 45.3333333,15.75 45.5833333,15.75 C45.4166667,15.75 45.3333333,15.6666667 45.1666667,15.5 C45.25,15.5833333 45.3333333,15.5833333 45.4166667,15.5833333 C45.0833333,15.5 45.5,15.5 45.6666667,15.4166667 L45.4166667,15.4166667 C45.6666667,15.25 45.9166667,15 46.1666667,14.75 L46.1666667,14.75 C45.8333333,14.9166667 46.25,14.5 46.5,14.4166667 C46.4166667,14.4166667 46.3333333,14.4166667 46.25,14.5 C46.5,14.1666667 46.75,14.1666667 47.0833333,14.1666667 C47,14.1666667 46.9166667,14.0833333 46.8333333,14.0833333 C47,14.0833333 46.8333333,14.0833333 46.9166667,14 C46.8333333,14 46.75,14 46.6666667,14.0833333 C47.0833333,13.5833333 47.5833333,13.9166667 47.9166667,14.1666667 C47.8333333,14.0833333 47.6666667,13.8333333 47.5,13.8333333 C47.5833333,13.8333333 47.8333333,13.9166667 47.6666667,13.75 L47.75,13.75 L47.9166667,13.75 C47.8333333,13.75 47.75,13.6666667 47.6666667,13.6666667 C47.9166667,13.6666667 48.0833333,13.6666667 48.3333333,13.75 C47.75,13.3333333 49.1666667,13.9166667 48.8333333,13.75 C49.3333333,13.9166667 49.5833333,14.0833333 49.8333333,14.5 C49.75,14.3333333 50,14.4166667 50,14.6666667 C50,14.4166667 49.8333333,14.1666667 50.0833333,14.5 C49.75,13.75 50.4166667,14.8333333 50.4166667,15.25 L50.4166667,15 L50.4166667,15 L50.5,15.0833333 C50.5,14.9166667 50.4166667,14.6666667 50.3333333,14.5 C50.75,14.6666667 50.8333333,15.1666667 50.5,15.4166667 C50.75,15.25 50.8333333,15 50.9166667,14.75 C50.9166667,15 50.75,15.4166667 50.5,15.5833333 C50.9166667,15.9166667 50.9166667,16.25 51.1666667,16.5833333 C51.4166667,16.9166667 51.8333333,17.1666667 52,17.5 C52,17.6666667 51.9166667,17.6666667 51.8333333,17.8333333 C51.75,18 51.5,18.4166667 51.5,18.3333333 C51.5833333,18.5 51.5833333,19 51.5,19.3333333 C51.5,19.3333333 51.4166667,19.4166667 51.3333333,19.25 C51.3333333,19.3333333 51.3333333,19.4166667 51.25,19.4166667 C51.25,19.4166667 51.25,19 51.25,19.5 C51.1666667,19.4166667 51.1666667,19.25 51.0833333,19.1666667 C51.0833333,19.25 51,19.5833333 50.9166667,19.0833333 L50.8333333,19.1666667 C50.8333333,19.1666667 50.8333333,19.0833333 50.75,19.0833333 C51,19.5833333 50.5833333,19.0833333 50.5833333,18.9166667 C50.5833333,18.9166667 50.3333333,19 50.1666667,18.8333333 C50.1666667,18.9166667 50.25,19.0833333 50.25,19.1666667 C50.0833333,18.9166667 50.3333333,19.3333333 50.1666667,19.0833333 C50.1666667,19.25 50.5833333,20 50.1666667,19.4166667 C50.25,19.5 50.4166667,19.9166667 50.4166667,20 C50.3333333,19.8333333 50.4166667,20.1666667 50.4166667,20.1666667 C50.3333333,19.9166667 50.25,19.75 50.0833333,19.6666667 C50.25,19.8333333 50.3333333,20.4166667 50.1666667,20.5833333 L50.1666667,20.5 C50.1666667,20.3333333 50.1666667,20.1666667 50.0833333,20.0833333 C50.1666667,20.5 50.0833333,20.6666667 50,20.8333333 C49.9166667,20.75 49.9166667,20.75 49.9166667,20.6666667 C49.9166667,20.8333333 50,21 50.1666667,21.0833333 L50.1666667,21.1666667 L50.1666667,21.1666667 C50.0833333,21.1666667 50.0833333,21.0833333 50,21.0833333 C50.25,21.5833333 50.0833333,21.5 50,21.3333333 C50,21.4166667 50.0833333,21.4166667 50.0833333,21.5 C50.0833333,21.5 50.0833333,21.5 50.0833333,21.5833333 C50,21.5 49.9166667,21.4166667 49.8333333,21.4166667 C50,21.8333333 50.0833333,22.25 50,22.5 C50,22.4166667 49.9166667,22.3333333 49.9166667,22.25 C49.9166667,22.4166667 50.0833333,22.75 49.9166667,22.8333333 L49.9166667,22.6666667 L49.9166667,22.8333333 C49.9166667,22.75 49.9166667,22.75 49.8333333,22.5833333 C49.8333333,22.75 49.9166667,23.0833333 49.75,23.25 C49.8333333,23.0833333 49.8333333,22.9166667 49.8333333,22.75 C49.8333333,22.9166667 49.8333333,23.0833333 49.75,23.1666667 C49.75,23.0833333 49.75,23.1666667 49.75,23 C49.6666667,23.25 49.75,22.9166667 49.5833333,23.0833333 L49.5833333,23 L49.5833333,23.1666667 C49.5833333,23.1666667 49.6666667,23.25 49.6666667,23.3333333 C49.5,23.25 49.3333333,23.0833333 49.1666667,22.9166667 C49.3333333,23.25 48.8333333,22.5 49.25,23.0833333 C48.9166667,22.8333333 48.9166667,22.75 48.75,22.3333333 C48.8333333,22.5 48.75,22.8333333 48.75,23 C48.6666667,23.25 48.5833333,23.5833333 48.5,23.3333333 C48.4166667,23.4166667 48.3333333,23.5 48.25,23.5833333 C48.5,23.3333333 48.1666667,23.5833333 48.25,23.25 C47.9166667,23.5 48.1666667,23.8333333 48.1666667,24.1666667 C48.0833333,23.8333333 48.1666667,24.25 48.0833333,23.9166667 C48.0833333,24 48.1666667,24.1666667 48.1666667,24.25 C48.0833333,24.1666667 48.0833333,24.1666667 48.0833333,24.25 L48,24.1666667 L48,24.0833333 C48,24.8333333 47.9166667,23.9166667 47.9166667,24.1666667 C47.75,23.9166667 47.6666667,23.6666667 47.6666667,23.3333333 C47.5833333,23.5833333 47.75,24.1666667 48,24.3333333 C47.9166667,24.25 47.75,24.0833333 47.75,24.1666667 C47.6666667,24.0833333 47.6666667,23.9166667 47.5833333,23.75 C47.6666667,24 47.5833333,24.25 47.4166667,24.4166667 C47.5,24.1666667 47.4166667,24.25 47.4166667,24 C47.25,24.25 47.1666667,24.25 47.3333333,23.8333333 C47.25,24 47.1666667,24.0833333 47.0833333,24.25 C47.1666667,23.9166667 47.0833333,24 47.0833333,24.1666667 L47.0833333,24.0833333 C47,24.3333333 46.9166667,24.3333333 47,24.0833333 C46.9166667,24.1666667 46.9166667,24.4166667 46.9166667,24.5833333 C46.5833333,24.1666667 46.6666667,25.3333333 46.5833333,25.6666667 C46.5,26.0833333 46.3333333,26.8333333 46.5833333,27.3333333 L47.4166667,27.3333333 C52,27.3333333 55.5,23.75 55.5,19.3333333 C55.5833333,15.1666667 52.1666667,11.5833333 47.5833333,11.5833333" id="Shape" fill="#FFFFFF" sketch:type="MSShapeGroup"></path>
            <path d="M45.5833333,24.8333333 C44.9166667,25.0833333 44.3333333,26.25 45.0833333,27.25 C45.75,26.75 46.1666667,25.4166667 45.5833333,24.8333333" id="Shape" fill="#FFFFFF" sketch:type="MSShapeGroup"></path>
            <path d="M40.75,23.9166667 C40.75,23.9166667 42.3333333,26.25 44,26.8333333 C44,26.8333333 44.1666667,23.5833333 40.75,23.9166667" id="Shape" fill="#FFFFFF" sketch:type="MSShapeGroup"></path>
            <path d="M21.3333333,27.3333333 L9.41666667,27.3333333 L9.41666667,23.6666667 L14.9166667,16.4166667 L9.58333333,16.4166667 L9.58333333,12 L21.1666667,12 L21.1666667,15.6666667 L15.6666667,22.8333333 L21.3333333,22.8333333 L21.3333333,27.3333333 Z" id="Shape" fill="#FFFFFF" sketch:type="MSShapeGroup"></path>
        </g>
    </g>
</svg>