<?xml version="1.0" encoding="UTF-8"?>
<svg width="65px" height="54px" viewBox="0 0 65 54" version="1.1" xmlns="http://www.w3.org/2000/svg" xmlns:xlink="http://www.w3.org/1999/xlink">
    <!-- Generator: Sketch 59 (86127) - https://sketch.com -->
    <title>Group</title>
    <desc>Created with Sketch.</desc>
    <g id="Page-1" stroke="none" stroke-width="1" fill="none" fill-rule="evenodd">
        <g id="Group">
            <path d="M8.5,0 C3.75,0 0,3.75 0,8.5 L0,31.25 C0,36.0833333 3.91666667,40 8.75,40 L22.9166667,40 C23.9166667,40 24.8333333,40.5833333 25.25,41.5 C27,45.25 28.8333333,49.25 30.1666667,52 C31.0833333,53.8333333 33.6666667,53.9166667 34.5833333,52.0833333 C35.9166667,49.25 37.75,45.25 39.5,41.4166667 C39.9166667,40.5 40.8333333,39.9166667 41.8333333,39.9166667 L56.3333333,39.9166667 C61.0833333,40 65,36.0833333 65,31.25 L65,8.75 C65,3.91666667 61.0833333,0 56.25,0 L8.5,0 Z" id="Shape" fill="#C0D8E9" fill-rule="nonzero"></path>
            <path d="M31.6969526,6.06493296 C32.6959242,6.06493296 33.4825583,6.61884223 34.2171877,7.14735387 C36.0668921,8.4780491 37.9165965,9.80874432 39.7663008,11.1396123 C40.3609844,11.5675703 40.8257429,11.9518167 41.1733616,12.630295 C41.521153,13.3089462 41.5617546,13.9105406 41.5617546,14.6430968 L41.5617546,14.6430968 L41.5617546,26.9037377 C41.5617546,27.5286565 41.6436488,27.9749283 41.8072646,28.2428988 C41.9710531,28.5106964 42.2908553,28.6445953 42.7670168,28.6445953 L42.7670168,28.6445953 L43.3027849,28.6445953 C43.510976,28.6445953 43.7490568,28.6148784 44.0170272,28.5554446 L44.0170272,28.5554446 L44.0170272,32.0819078 C43.8383803,32.1415144 43.6077287,32.2083775 43.3250726,32.2828425 C43.0424165,32.3573075 42.7521584,32.4241705 42.4546438,32.4836043 C42.1569565,32.5432109 41.8594419,32.587959 41.5617546,32.6175032 C41.26424,32.6472201 41.0113008,32.6622513 40.8029369,32.6622513 C39.7612904,32.6622513 38.8982909,32.4538874 38.2137655,32.0373325 C37.5294129,31.6206048 37.0829683,30.891504 36.8746044,29.8500303 C35.8628476,30.8318975 34.6204392,31.5461397 33.1472065,31.9925844 C31.6741466,32.439029 30.2530912,32.6622513 28.8842132,32.6622513 C27.8425667,32.6622513 26.8456683,32.5209232 25.8933453,32.2380944 C24.9410222,31.9554382 24.1003103,31.5387105 23.3712096,30.9882567 C22.6421089,30.4376302 22.0617654,29.7382464 21.630352,28.8901053 C21.1987659,28.0419641 20.9829728,27.052495 20.9829728,25.9216977 C20.9829728,24.4932132 21.243514,23.3325263 21.7642509,22.4398098 C22.2849877,21.5469206 22.9695131,20.8475367 23.8176542,20.3418311 C24.6657953,19.8357799 25.6181184,19.4714023 26.6746234,19.24818 C27.7309556,19.0249577 28.7948898,18.85374 29.8662532,18.7346996 C30.7677811,18.6346642 32.336557,18.3958923 33.2356661,18.2727054 C33.7736802,18.1987587 34.2650458,18.0999327 34.7095899,17.9758819 C35.3495399,17.797235 35.8554183,17.5220081 36.2273979,17.1500285 C36.5812364,16.79619 36.7667942,16.2742438 36.7840715,15.5841897 C36.7892547,15.3765169 36.770768,15.0318354 36.7172085,14.8341834 C36.5993775,14.3987963 36.3352081,14.0174869 35.9692755,13.7541814 C34.9269379,13.0041751 33.8846003,12.2543417 32.8422627,11.5043355 C32.5082931,11.2641814 32.1506536,11.0124516 31.6962615,11.0124516 C31.2422148,11.0126244 30.8845754,11.2643542 30.5507786,11.5043355 C29.6126229,12.1795311 28.6744672,12.8543812 27.7361387,13.5292313 C27.4750792,13.717208 27.2492653,13.9089857 27.0965343,14.2068458 C26.943976,14.5048787 26.9201333,14.7999744 26.9201333,15.1218499 L26.9201333,15.1218499 L26.9201333,16.011802 L21.8311139,16.011802 L21.8311139,14.6430968 C21.8311139,13.9105406 21.8718883,13.3089462 22.2195069,12.630295 C22.5672983,11.9518167 23.0318841,11.5675703 23.6267404,11.1396123 C25.4764448,9.80874432 27.3261492,8.4780491 29.1758535,7.14735387 C29.9106558,6.61866946 30.6974626,6.06493296 31.6969526,6.06493296 Z M36.4729079,20.4757299 C35.6992318,20.9816083 34.7469088,21.2865521 33.6159388,21.3907341 C32.4851415,21.494916 31.3543443,21.6512753 30.2233743,21.8594664 C29.687779,21.9486171 29.1668694,22.0752594 28.6609909,22.2388752 C28.1551125,22.4024909 27.7086679,22.6257132 27.3218298,22.9085421 C26.9349918,23.1911982 26.6298752,23.5631778 26.4066529,24.0244809 C26.1836034,24.485784 26.0719922,25.0438397 26.0719922,25.6984754 C26.0719922,26.2639604 26.235608,26.740122 26.5630122,27.12696 C26.8902437,27.513798 27.2846837,27.8189146 27.7459868,28.0419641 C28.2071171,28.2651865 28.7131683,28.421373 29.2636221,28.5106964 C29.8142486,28.6000199 30.3126978,28.6445953 30.7591424,28.6445953 C31.3244546,28.6445953 31.934515,28.570303 32.5893235,28.421373 C33.2439592,28.2726157 33.8614488,28.0196765 34.4417922,27.6625553 C35.0221357,27.3054342 35.5057264,26.8515603 35.8925645,26.3011066 C36.2794025,25.75048 36.4729079,25.0733839 36.4729079,24.2699909 L36.4729079,24.2699909 Z" id="Combined-Shape" fill="#FFFFFF"></path>
        </g>
    </g>
</svg>