<svg xmlns="http://www.w3.org/2000/svg" width="348.891" height="88.912" viewBox="0 0 348.891 88.912">
  <g id="Group_55" data-name="Group 55" transform="translate(-547.112 -464.823)">
    <g id="Group_55-2" data-name="Group 55" transform="translate(889.617 464.941)">
      <path id="Path_128" data-name="Path 128" d="M1127.208,465.554h-.9v-.532h2.456v.532h-.9v2.287h-.652Z" transform="translate(-1126.306 -465.022)" fill="#fff"/>
      <path id="Path_129" data-name="Path 129" d="M1134.3,467.84l0-1.691-.83,1.393h-.294l-.825-1.357v1.655h-.612v-2.818h.539l1.055,1.752,1.039-1.752h.536l.008,2.818Z" transform="translate(-1128.524 -465.022)" fill="#fff"/>
    </g>
    <path id="Path_130" data-name="Path 130" d="M725.734,495.483v47.472c0,17.79-13.729,22.914-25.33,22.914-6.769,0-12.375-1.74-14.793-3.48v-6.865c2.32,1.547,7.154,3.384,13.536,3.384,9.861,0,18.465-4.448,18.465-15.857v-6.768h-.483c-2.32,5.317-9.378,10.441-18.659,10.441-12.085,0-24.654-8.894-24.654-26.1s12.568-26.105,24.654-26.105c9.282,0,16.339,5.125,18.659,10.442h.483v-9.475ZM717.9,520.621c0-12.376-9.087-18.659-18.08-18.659-8.894,0-17.886,6.187-17.886,18.659s8.991,18.659,17.886,18.659C708.815,539.28,717.9,533,717.9,520.621Z" transform="translate(-51.778 -12.134)" fill="#fff"/>
    <path id="Path_131" data-name="Path 131" d="M821.995,523.619H780.614c1.257,10.538,9.282,16.145,18.95,16.145a20.178,20.178,0,0,0,14.986-6.09l4.06,4.157c-4.543,5.608-11.795,8.894-19.917,8.894-13.535,0-25.815-9.378-25.815-26.1,0-16.92,12.376-26.105,25.041-26.105C810.683,494.516,824.025,503.7,821.995,523.619Zm-41.381-6.188h34.227c-.581-10.346-8.412-15.856-16.824-15.856C789.7,501.575,781.87,506.892,780.614,517.431Z" transform="translate(-92.26 -12.134)" fill="#fff"/>
    <path id="Path_132" data-name="Path 132" d="M912.122,516.173v29.586H904V517.333c0-10.151-5.994-15.371-14.019-15.371s-14.309,5.22-14.309,15.371v28.425h-8.122V495.483h8.122V503.7c2.611-4.834,8.121-9.185,16.822-9.185C903.034,494.516,912.122,501.091,912.122,516.173Z" transform="translate(-130.948 -12.134)" fill="#fff"/>
    <path id="Path_133" data-name="Path 133" d="M954.19,465.087h8.121v7.541H954.19Zm0,18.37h8.121v50.275H954.19Z" transform="translate(-166.354 -0.108)" fill="#fff"/>
    <path id="Path_134" data-name="Path 134" d="M1023.763,496.152v50.275h-8.122v-8.218c-2.611,4.834-8.122,9.184-16.823,9.184-10.538,0-19.627-6.575-19.627-21.657V496.152h8.121v28.424c0,10.152,5.995,15.373,14.02,15.373s14.309-5.221,14.309-15.373V496.152Z" transform="translate(-176.57 -12.803)" fill="#fff"/>
    <path id="Path_135" data-name="Path 135" d="M1062.235,532.4l6.634-1.8c1.326,5.213,5.212,8.53,10.708,8.53,4.643,0,9.288-2.274,9.288-7.676,0-4.076-2.843-6.161-8.53-8.53l-4.454-1.705c-8.15-3.318-11.562-8.151-11.562-13.742,0-7.77,6.729-12.888,15.257-12.888,7.866,0,13.741,4.359,15.447,10.993l-6.349,1.9c-1.516-4.074-4.455-6.349-8.813-6.349-4.264,0-7.676,2.275-7.676,6.444,0,3.127,1.99,5.591,7.107,7.676l3.981,1.611c7.77,3.032,13.456,6.445,13.456,14.6,0,9.76-8.244,14.309-17.153,14.309C1070.385,545.758,1063.751,540.83,1062.235,532.4Z" transform="translate(-210.506 -12.162)" fill="#fff"/>
    <path id="Path_136" data-name="Path 136" d="M615.941,493.962H593.834l15.48-15.48-7.108-7.251-15.63,15.63V464.837l-10.148-.014v22.159L560.847,471.4l-7.185,7.166,15.385,15.385-21.93.01,0,10.153h22.2L553.539,519.9l7.176,7.182,15.706-15.706-.02,22.273,10.174.014.01-22.161,15.723,15.751,7.2-7.185-15.939-15.952H615.84Z" transform="translate(0)" fill="#00bed6"/>
  </g>
</svg>
