<svg xmlns="http://www.w3.org/2000/svg" xmlns:xlink="http://www.w3.org/1999/xlink" width="129.446" height="31.085" viewBox="0 0 129.446 31.085"><defs><clipPath id="a"><path d="M0,0H29.291V31.085H0Z" transform="translate(0 0.287)" fill="none"/></clipPath></defs><g transform="translate(-39 -46.627)"><path d="M.532.316H0V0H1.449V.316H.917V1.678H.532Z" transform="translate(164.68 47.181)" fill="currentColor"/><path d="M1.553,0,.94,1.042.318,0H0V1.678H.361V.692L.848,1.5h.174l.49-.829,0,1.007h.361L1.869,0Z" transform="translate(166.572 47.181)" fill="currentColor"/><path d="M13.261,0,0,29.942H5.316L9.25,20.374h9.806l-1.745-4.146H11.15L15.394,6.157,19.72,16.664l1.394,3.515,4.07,9.763h4.862L17.441,0Z" transform="translate(72.324 47.217)" fill="currentColor"/><path d="M17,29.965H7.555A7.6,7.6,0,0,1,0,22.344V0H4.407V22.344a3.166,3.166,0,0,0,3.148,3.176H17Z" transform="translate(109.041 47.217)" fill="currentColor"/><path d="M13.38,30,5.39,15.138,13.4,0H8.1L2.678,10.092l0-.008L0,15.058,7.906,30Z" transform="translate(149.426 47.181)" fill="currentColor"/><path d="M.019,30H5.494L13.4,15.058l-2.673-4.973,0,.008L5.3,0H0L8.008,15.138Z" transform="translate(133.086 47.181)" fill="currentColor"/><g transform="translate(39 46.34)"><path d="M0,0H29.291V31.085H0Z" transform="translate(0 0.287)" fill="none"/><g clip-path="url(#a)"><path d="M25.243,20.426a10.948,10.948,0,0,1-20.8-4.883,10.948,10.948,0,0,1,20.816-4.855l4.033-1.883A15.385,15.385,0,0,0,0,15.543,15.386,15.386,0,0,0,29.278,22.31Z" transform="translate(0 0.287)" fill="currentColor"/></g></g></g></svg>
