<svg xmlns="http://www.w3.org/2000/svg" width="20.918" height="27.462" viewBox="0 0 20.918 27.462">
  <g id="Group_73" data-name="Group 73" transform="translate(-61)">
    <g id="Group_73-2" data-name="Group 73" transform="translate(61)">
      <path id="Path_1" data-name="Path 1" d="M71.459,0A10.471,10.471,0,0,0,61,10.459a10.365,10.365,0,0,0,2.086,6.27l7.728,10.408c.019.025.049.035.07.057a.779.779,0,0,0,1.219-.057c2.225-2.969,6.3-8.515,7.873-10.607v0l.01-.013A10.459,10.459,0,0,0,71.459,0Zm0,16.1A5.643,5.643,0,1,1,77.1,10.459,5.657,5.657,0,0,1,71.459,16.1Z" transform="translate(-61)" fill="currentColor"/>
    </g>
  </g>
</svg>
