<svg xmlns="http://www.w3.org/2000/svg" width="377.774" height="85.999" viewBox="0 0 377.774 85.999">
  <g id="Group_18" data-name="Group 18" transform="translate(-644.441 -485.25)">
    <g id="Group_18-2" data-name="Group 18" transform="translate(1015.806 485.364)">
      <path id="Path_1" data-name="Path 1" d="M1266.148,485.974h-.905v-.533h2.465v.533h-.906v2.3h-.654Z" transform="translate(-1265.243 -485.441)" fill="#fff"/>
      <path id="Path_2" data-name="Path 2" d="M1273.2,488.269l0-1.7-.833,1.4h-.295l-.828-1.362v1.661h-.614v-2.828h.541l1.059,1.758,1.043-1.758h.538l.008,2.828Z" transform="translate(-1267.406 -485.441)" fill="#fff"/>
    </g>
    <path id="Path_3" data-name="Path 3" d="M1213.248,514.724l-29.656-.013v-29.36l-10.191-.1v29.474h-29.234l-.014,10.186h29.234l.014,29.421,10.191,0V524.91l29.642.027Z" transform="translate(-200.784)" fill="#00d49f"/>
    <path id="Path_4" data-name="Path 4" d="M695.255,540.67c0,16.844-12.112,25.549-24.129,25.549-9.179,0-16.087-5.015-18.453-10.22h-.284v27.252h-7.948V516.067h7.948v9.273h.284c2.366-5.2,9.273-10.22,18.453-10.22C683.143,515.121,695.255,523.827,695.255,540.67Zm-7.948,0c0-12.206-8.706-18.263-17.506-18.263s-17.6,6.151-17.6,18.263,8.8,18.262,17.6,18.262S687.307,552.876,687.307,540.67Z" transform="translate(0 -12.002)" fill="#fff"/>
    <path id="Path_5" data-name="Path 5" d="M791.295,540.67c0-16.465,12.774-25.549,25.549-25.549s25.549,9.084,25.549,25.549-12.774,25.549-25.549,25.549S791.295,557.135,791.295,540.67Zm43.149,0c0-11.639-8.517-18.263-17.6-18.263s-17.6,6.623-17.6,18.263,8.517,18.262,17.6,18.262S834.444,552.309,834.444,540.67Z" transform="translate(-59.006 -12.002)" fill="#fff"/>
    <path id="Path_6" data-name="Path 6" d="M865.216,576.2h2.176c7.287,0,12.112-2.25,12.112-12.469V516.665h7.948v47.626c0,14.719-7.475,19.22-19.87,19.22h-2.366Z" transform="translate(-88.707 -12.622)" fill="#fff"/>
    <rect id="Rectangle_14" data-name="Rectangle 14" width="7.949" height="7.381" transform="translate(790.797 485.442)" fill="#fff"/>
    <path id="Path_7" data-name="Path 7" d="M1004.537,541.481c0-16.262,12.616-25.233,25.233-25.233a23.169,23.169,0,0,1,20.747,11.963l-5.981,3.551a16.861,16.861,0,0,0-14.673-8.317c-8.785,0-17.476,6.542-17.476,18.037s8.691,18.037,17.476,18.037a16.861,16.861,0,0,0,14.673-8.317l5.981,3.551a23.353,23.353,0,0,1-20.747,11.962C1017.153,566.715,1004.537,557.743,1004.537,541.481Z" transform="translate(-144.686 -12.455)" fill="#fff"/>
    <path id="Path_8" data-name="Path 8" d="M961.011,543.6h-40.5c1.23,10.314,9.084,15.8,18.547,15.8a19.747,19.747,0,0,0,14.667-5.962l3.974,4.069c-4.448,5.489-11.544,8.706-19.492,8.706-13.248,0-25.266-9.179-25.266-25.549,0-16.559,12.112-25.549,24.508-25.549C949.94,515.121,963,524.111,961.011,543.6Zm-40.5-6.056h33.5c-.568-10.125-8.232-15.519-16.465-15.519C929.406,522.029,921.741,527.233,920.511,537.548Z" transform="translate(-107.883 -12.002)" fill="#fff"/>
    <path id="Path_9" data-name="Path 9" d="M1106.981,510.611v31.527c0,3.066,1.525,4.982,5.242,4.982a12.926,12.926,0,0,0,4.48-.861v6.42c-1.716,1.341-4.385,1.725-6.672,1.725-6.576,0-11.056-3.259-11.056-10.733v-33.06H1092.3V504h6.673l-.014-18.579h7.993l.027,18.579h9.818v6.612Z" transform="translate(-179.95 -0.068)" fill="#fff"/>
    <path id="Path_10" data-name="Path 10" d="M767.326,516.074v7.584a11.857,11.857,0,0,0-2.785-.288c-9.312,0-16.128,7.008-16.128,18.144v25.055H740.35l-.014-50.412h8.077v12.876c1.825-7.2,6.816-13.343,16.032-13.343A8.377,8.377,0,0,1,767.326,516.074Z" transform="translate(-38.53 -12.231)" fill="#fff"/>
  </g>
</svg>
