<svg xmlns="http://www.w3.org/2000/svg" width="228.73" height="68.483" viewBox="0 0 228.73 68.483">
  <g id="Group_53" data-name="Group 53" transform="translate(-760.83 -480.367)">
    <path id="Path_115" data-name="Path 115" d="M844.856,512.448,826.013,562.44h-7.5l-15.671-40.186L787.172,562.44h-7.5L760.83,512.448H769l14.517,39.9L799,512.448h7.691l15.479,39.9,14.517-39.9Z" transform="translate(0 -13.66)" fill="#fff"/>
    <path id="Path_116" data-name="Path 116" d="M918.431,480.636h8.076v7.5h-8.076Zm0,18.267h8.076V548.9h-8.076Z" transform="translate(-67.105 -0.114)" fill="#fff"/>
    <path id="Path_117" data-name="Path 117" d="M988.084,532.309v29.418h-8.076V533.462c0-10.095-5.961-15.287-13.941-15.287s-14.228,5.192-14.228,15.287v28.265h-8.076V511.735h8.076v8.171c2.6-4.807,8.076-9.133,16.728-9.133C979.046,510.773,988.084,517.31,988.084,532.309Z" transform="translate(-77.891 -12.946)" fill="#fff"/>
    <g id="Group_53-2" data-name="Group 53" transform="translate(983.202 480.38)">
      <path id="Path_118" data-name="Path 118" d="M1148.994,480.918h-.9v-.529h2.446v.529h-.9V483.2h-.65Z" transform="translate(-1148.096 -480.389)" fill="#fff"/>
      <path id="Path_119" data-name="Path 119" d="M1156.215,483.2l0-1.684-.826,1.387h-.292l-.822-1.351V483.2h-.609v-2.807h.537l1.051,1.744,1.035-1.744h.533l.008,2.807Z" transform="translate(-1150.465 -480.389)" fill="#fff"/>
    </g>
    <g id="Group_54" data-name="Group 54" transform="translate(917.283 480.367)">
      <path id="Path_120" data-name="Path 120" d="M1043.406,548.851h-10.06l18.41-33.826L1033.3,480.367h9.718l18.33,34.659Z" transform="translate(-1033.298 -480.367)" fill="#ba9f6f"/>
      <path id="Path_121" data-name="Path 121" d="M1111.223,548.851h10.06l-18.41-33.826,18.459-34.657h-9.718l-18.557,34.258Z" transform="translate(-1058.743 -480.367)" fill="#ba9f6f"/>
    </g>
  </g>
</svg>
