<?xml version="1.0" standalone="no"?>
<!DOCTYPE svg PUBLIC "-//W3C//DTD SVG 20010904//EN"
 "http://www.w3.org/TR/2001/REC-SVG-20010904/DTD/svg10.dtd">
<svg version="1.0" xmlns="http://www.w3.org/2000/svg"
 width="700.000000pt" height="700.000000pt" viewBox="0 0 700.000000 700.000000"
 preserveAspectRatio="xMidYMid meet">
<metadata>
Created by potrace 1.11, written by Peter Selinger 2001-2013
</metadata>
<g transform="translate(0.000000,700.000000) scale(0.100000,-0.100000)"
fill="#000000" stroke="none">
<path d="M3140 6676 c-159 -42 -247 -95 -685 -412 -121 -87 -230 -166 -242
-174 -11 -8 -50 -36 -85 -61 -34 -25 -209 -151 -388 -279 -407 -292 -503 -364
-564 -426 -111 -112 -189 -256 -221 -409 -13 -60 -18 -145 -21 -342 l-4 -263
33 -1 c98 -3 1155 -3 1173 -1 20 4 21 10 21 130 1 174 8 227 42 297 41 84 84
121 366 321 21 15 55 39 285 206 309 223 355 247 468 243 98 -3 150 -30 412
-219 118 -86 223 -161 233 -168 442 -315 488 -356 537 -485 48 -125 35 -364
-27 -488 -102 -209 -357 -325 -858 -391 -27 -3 -57 -8 -66 -9 -9 -2 -40 -6
-70 -10 -30 -3 -65 -8 -79 -10 -41 -8 -77 -13 -240 -35 -85 -11 -168 -23 -185
-25 -16 -2 -52 -7 -80 -10 -27 -3 -66 -8 -85 -10 -19 -3 -55 -7 -80 -10 -25
-3 -56 -7 -70 -10 -14 -3 -48 -7 -76 -10 -28 -3 -61 -8 -75 -10 -13 -3 -35 -7
-49 -9 -14 -3 -41 -8 -60 -10 -139 -21 -397 -78 -504 -112 -140 -44 -128 -40
-151 -49 -173 -67 -337 -155 -454 -242 -188 -141 -353 -351 -442 -561 -31 -75
-77 -228 -85 -282 -2 -19 -6 -44 -9 -55 -26 -130 -27 -534 -2 -672 58 -308
189 -564 402 -779 283 -285 697 -462 1230 -524 71 -8 490 -6 535 3 14 3 54 8
90 12 90 9 128 14 180 25 25 5 56 12 70 14 131 22 393 92 530 141 221 80 506
245 676 394 45 39 84 71 88 71 3 0 6 -9 6 -19 0 -35 42 -155 83 -241 61 -124
167 -229 297 -293 118 -58 251 -94 400 -108 101 -10 297 -7 370 5 14 3 47 7
73 11 106 13 315 61 425 96 l62 21 0 424 c0 400 -1 425 -17 420 -51 -14 -94
-17 -225 -18 -131 0 -148 2 -199 25 -73 32 -104 77 -136 196 -4 14 -8 699 -9
1521 -3 1709 -5 1835 -32 1935 -55 205 -164 357 -356 499 -191 141 -1413 1018
-1502 1077 -183 123 -306 169 -464 174 -85 3 -121 0 -190 -19z m1314 -3958
c-1 -494 -3 -545 -25 -633 -54 -213 -200 -405 -422 -554 -191 -128 -447 -220
-692 -247 -27 -3 -61 -7 -75 -10 -30 -5 -272 -5 -315 0 -16 2 -61 6 -100 11
-60 6 -139 20 -234 41 -48 10 -188 62 -241 89 -158 80 -295 211 -353 336 -52
113 -56 317 -11 494 46 178 158 333 313 432 47 30 167 91 226 114 51 20 199
63 258 75 10 2 26 5 35 8 9 3 35 8 57 11 22 4 73 13 114 21 40 9 87 17 105 19
28 4 131 19 196 30 108 17 295 40 415 50 39 3 81 8 95 10 14 3 45 7 70 10 168
23 331 73 480 150 58 29 105 54 105 54 1 1 0 -230 -1 -511z"/>
</g>
</svg>
